<svg width="407" height="95" viewBox="0 0 407 95" fill="none" xmlns="http://www.w3.org/2000/svg">
<path d="M261.891 12C269.966 12 276.485 14.0136 281.448 18.0408C283.745 19.9052 285.486 22.1052 286.671 24.6409C287.856 27.1765 288.449 29.8986 288.449 32.8071C288.449 40.6377 284.041 48.0955 275.226 55.1803L260.669 66.9263H282.671C286.152 66.9263 288.153 68.0823 288.671 70.3942C289.042 72.0349 289.227 73.3027 289.227 74.1976C289.227 79.1943 287.078 81.6926 282.782 81.6926H248.112C246.408 81.6926 245.038 81.5062 244 81.1333C242.963 80.7604 242.111 80.0519 241.445 79.0078C239.815 76.9197 239 74.3095 239 71.1772C239 66.8517 240.667 63.3093 244 60.5499L259.335 47.3497C263.336 43.9192 265.965 41.2717 267.225 39.4072C268.632 37.5428 269.336 35.7156 269.336 33.9258C269.336 31.9122 268.447 30.3088 266.669 29.1155C264.891 27.8477 262.632 27.2138 259.891 27.2138C256.853 27.2138 253.705 27.885 250.445 29.2274C248.742 29.8986 247.408 30.2342 246.445 30.2342C245.038 30.2342 243.889 29.6003 243 28.3325C242.185 26.9901 241.778 25.3867 241.778 23.5222C241.778 19.7933 243.519 16.9594 247.001 15.0204C250.483 13.0068 255.446 12 261.891 12Z" fill="black"/>
<path d="M320.405 17.4814C321.294 16.2882 322.183 15.3933 323.072 14.7967C324.035 14.2 325.146 13.7899 326.405 13.5661C328.48 13.1187 330.517 12.8949 332.517 12.8949C336.74 12.8949 339.999 13.7526 342.296 15.4679C344.666 17.1831 345.852 19.7933 345.852 23.2985V53.0549H351.074C354.556 53.0549 356.593 54.2481 357.186 56.6346C357.556 58.2753 357.742 59.5804 357.742 60.5499C357.742 65.7703 355.519 68.3806 351.074 68.3806H345.852V76.4349C345.852 78.7468 345.296 80.3502 344.185 81.2452C343.148 82.1401 341.629 82.5876 339.629 82.5876C334.74 82.5876 331.554 82.1401 330.072 81.2452C329.184 80.6485 328.517 79.8282 328.072 78.7841C327.628 77.74 327.406 76.3603 327.406 74.6451V68.3806H303.181C301.551 68.3806 300.255 68.2314 299.292 67.9331C298.329 67.6348 297.403 67.0382 296.514 66.1432C294.366 63.9805 293.291 61.2584 293.291 57.977C293.291 56.2617 293.477 54.5837 293.847 52.943C294.291 51.2277 294.921 49.8481 295.736 48.804L320.405 17.4814ZM328.406 32.024H328.072L313.293 53.0549H328.406V32.024Z" fill="black"/>
<path d="M397.64 13.678C399.344 13.678 400.678 13.8644 401.641 14.2373C402.678 14.6102 403.53 15.2814 404.196 16.2509C405.604 17.8916 406.308 19.9798 406.308 22.5154C406.308 25.3494 405.826 27.7731 404.863 29.7867L383.528 78.3366C382.268 81.1706 381.194 82.5876 380.305 82.5876H376.194C368.712 82.5876 364.971 79.7536 364.971 74.0857C364.971 72.8179 365.267 71.4009 365.86 69.8348C366.452 68.2687 367.526 65.8076 369.082 62.4517L385.306 29.0037H362.748C359.266 29.0037 357.229 27.8104 356.637 25.4239C356.266 23.7832 356.081 22.4781 356.081 21.5086C356.081 16.2882 358.303 13.678 362.748 13.678H397.64Z" fill="black"/>
<path fill-rule="evenodd" clip-rule="evenodd" d="M7.75185 25.5667C2.58395 30.628 0 37.6988 0 46.7793C0 55.7853 2.69469 62.8561 8.08407 67.9918C13.5473 73.1275 21.0407 75.6953 30.5644 75.6953C34.9941 75.6953 38.9069 75.1371 42.3029 74.0207C46.9541 72.5321 50.3132 70.8946 52.3804 69.1083C54.4475 67.3219 55.4811 64.9402 55.4811 61.963V9.04325C55.4811 5.6939 54.7059 3.38657 53.1555 2.12126C51.6052 0.781521 48.9474 0.111651 45.1822 0.111651L42.7459 0C40.9741 0 39.4975 0.446581 38.3163 1.33974C37.2089 2.15847 36.6552 3.83315 36.6552 6.36377V19.3146C34.6618 18.4214 32.0779 17.9748 28.9033 17.9748C19.9702 17.9748 12.9197 20.5055 7.75185 25.5667ZM22.1481 36.3963C24.2891 34.0145 27.3899 32.8236 31.4504 32.8236C33.5913 32.8236 35.3632 33.2702 36.7659 34.1634V58.7253C35.3632 60.065 33.333 60.7349 30.6752 60.7349C26.91 60.7349 24.0307 59.5812 22.0374 57.2739C20.0441 54.8921 19.0474 51.3939 19.0474 46.7793C19.0474 42.1646 20.081 38.7036 22.1481 36.3963ZM107.335 68.1035C112.577 62.9678 115.198 55.8597 115.198 46.7793C115.198 42.5368 114.497 38.6292 113.094 35.0565C111.765 31.4095 109.809 28.3206 107.225 25.79C104.641 23.2594 101.54 21.3242 97.9225 19.9845C94.3049 18.6447 90.3921 17.9748 86.184 17.9748C77.5462 17.9748 70.5695 20.5427 65.254 25.6784C62.67 28.209 60.6767 31.2978 59.274 34.9449C57.8712 38.5175 57.1699 42.4623 57.1699 46.7793C57.1699 55.7853 59.8646 62.8189 65.254 67.8802C70.4219 73.0903 77.3985 75.6953 86.184 75.6953C95.117 75.6953 102.168 73.1647 107.335 68.1035ZM150.935 39.5223C150.935 37.2894 150.308 35.6148 149.053 34.4983C147.798 33.3819 146.026 32.8236 143.737 32.8236C140.489 32.8236 137.794 33.5679 135.653 35.0565V68.6617C135.653 71.1923 135.025 72.9042 133.77 73.7974C132.515 74.6161 131.076 74.9882 129.452 74.9138L127.237 74.8022C123.472 74.8022 120.777 74.1323 119.153 72.7926C117.602 71.4528 116.827 69.1455 116.827 65.8706V32.3771C116.827 30.5163 117.196 28.9533 117.935 27.688C118.673 26.4227 119.891 25.1946 121.589 24.0037C124.321 22.1429 127.606 20.6915 131.445 19.6495C135.284 18.5331 139.381 17.9748 143.737 17.9748C152.08 17.9748 158.503 19.8356 163.006 23.5571C167.509 27.2042 169.761 32.3026 169.761 38.8525V68.6617C169.761 71.1923 169.134 72.9042 167.879 73.7974C166.624 74.6161 165.184 74.9882 163.56 74.9138L161.345 74.8022C157.58 74.8022 154.885 74.1323 153.261 72.7926C151.71 71.4528 150.935 69.1455 150.935 65.8706V39.5223ZM220.238 23.7804C214.775 19.91 208.057 17.9748 200.083 17.9748C191.15 17.9748 184.137 20.3194 179.043 25.0085C173.949 29.6231 171.402 36.173 171.402 44.658C171.402 53.3663 173.912 60.065 178.932 64.7541C181.073 66.7637 183.62 68.3268 186.573 69.4432C189.6 70.4852 192.811 71.0062 196.207 71.0062C198.718 71.0062 200.6 70.8574 201.855 70.5597C204.292 70.1875 205.657 70.0014 205.953 70.0014C206.839 70.0014 207.282 70.2619 207.282 70.7829C207.282 76.4396 202.926 79.268 194.214 79.268C190.744 79.268 186.979 78.5237 182.919 77.0351C181.663 76.5141 180.556 76.2535 179.596 76.2535C178.12 76.2535 177.012 76.849 176.274 78.0399C175.536 79.2308 175.167 80.7194 175.167 82.5057C175.167 90.2464 182.365 94.1168 196.761 94.1168C205.473 94.1168 212.339 92.1071 217.359 88.0879C222.453 84.0687 225 78.4492 225 71.2295V32.1538C225 30.293 224.631 28.73 223.893 27.4647C223.154 26.1994 221.936 24.9713 220.238 23.7804ZM206.949 50.2403C206.949 53.8129 205.805 55.8597 203.516 56.3807C202.704 56.6785 201.449 56.8273 199.751 56.8273C196.65 56.8273 194.251 55.7853 192.553 53.7013C190.929 51.6172 190.117 48.6028 190.117 44.658C190.117 40.8621 191.04 37.9593 192.885 35.9497C194.731 33.8657 197.426 32.8236 200.969 32.8236C202.151 32.8236 203.184 32.9353 204.07 33.1586C205.99 33.6052 206.949 35.5403 206.949 38.9641V50.2403ZM81.655 41.6752C82.3404 42.2734 84.1302 44.0348 87.0244 46.9593L83.3686 50.3491C81.0838 52.2102 79.5605 53.7389 78.7989 54.9353C78.1896 55.8658 77.885 56.9958 77.885 58.3251C77.885 60.3191 78.6085 61.8811 80.0556 63.011C81.5788 64.1409 83.5209 64.7059 85.882 64.7059C86.4912 64.7059 86.834 64.6727 86.9101 64.6062C87.5194 64.4733 88.7761 63.5427 90.6801 61.8146L95.0213 57.5275L98.2201 54.3371C99.2864 53.0078 100.01 51.8778 100.391 50.9473C100.772 50.0832 100.962 48.8868 100.962 47.3581C100.962 46.0288 100.657 44.6994 100.048 43.3701C99.5148 42.1072 98.6009 40.6782 97.3062 39.083L93.3077 34.1977C91.8606 32.4696 90.5278 31.2399 89.3092 30.5088C88.0906 29.7777 86.7197 29.4121 85.1965 29.4121C81.7692 29.4121 79.4463 31.0405 78.2277 34.2974C77.9992 34.8956 77.885 35.4938 77.885 36.092C77.885 37.6207 78.7228 39.1162 80.3983 40.5785L81.655 41.6752Z" fill="#E81F1F"/>
</svg>
