<svg width="74" height="31" viewBox="0 0 74 31" fill="none" xmlns="http://www.w3.org/2000/svg">
<path d="M47.9013 15.1763V15.1037C50.0765 14.0101 51.0914 12.0444 51.0914 10.0076C51.0914 7.16881 48.9144 3.82031 42.7246 3.82031C37.5852 3.82031 34.0576 6.51418 34.0576 10.6269C34.0576 12.6992 34.8462 14.5926 37.0598 15.7939L37.0972 15.8673C34.5474 16.9579 32.9336 18.8149 32.9336 21.6546C32.9336 24.71 35.6721 28.2761 42.3866 28.2761C48.4641 28.2761 52.2154 25.3291 52.2154 20.9613C52.2154 17.8323 50.0025 15.9388 47.9013 15.1763ZM42.4695 8.26467C44.1935 8.26467 44.8498 9.45762 44.8498 10.7303C44.8498 11.8947 44.1178 13.0994 43.1432 13.3185C41.5295 12.8085 39.7354 11.7252 39.7354 10.4875C39.7353 9.24968 40.8553 8.26467 42.4695 8.26467ZM42.6496 23.8377C40.9615 23.8377 39.7354 22.4747 39.7354 21.0177C39.7354 19.5618 40.5433 18.1253 42.0074 17.7615C43.77 18.1988 45.4134 19.6846 45.4134 21.3961C45.4134 22.7787 44.2245 23.8377 42.6496 23.8377Z" fill="#00844A"/>
<path d="M54.5 21.6542C54.5 24.7096 57.2393 28.2756 63.9543 28.2756C70.0308 28.2756 73.7821 25.3287 73.7821 20.9609C73.7821 17.8321 71.5693 15.9386 69.4677 15.1761V15.1035C71.6439 14.01 72.659 12.0443 72.659 10.0075C72.659 7.16876 70.4818 3.82031 64.2911 3.82031C59.1527 3.82031 55.6238 6.51415 55.6238 10.6269C55.6238 12.699 56.4143 14.5925 58.6269 15.7937L58.6652 15.8672C56.1142 16.9576 54.5 18.8146 54.5 21.6542ZM64.0354 8.26452C65.7613 8.26452 66.416 9.45746 66.416 10.7301C66.416 11.8945 65.6847 13.0992 64.7097 13.3183C63.0955 12.8083 61.3026 11.725 61.3026 10.4874C61.3025 9.24952 62.4235 8.26452 64.0354 8.26452ZM63.5736 17.7613C65.3368 18.1985 66.9817 19.6843 66.9817 21.3958C66.9817 22.7784 65.7926 23.8374 64.2169 23.8374C62.5287 23.8374 61.3025 22.4744 61.3025 21.0174C61.3025 19.5615 62.111 18.1251 63.5736 17.7613Z" fill="#00844A"/>
<path d="M30.6623 15.4999C30.6623 7.21456 23.7985 0.5 15.3311 0.5C6.86463 0.5 0 7.21456 0 15.4999C0 23.7829 6.86472 30.499 15.3311 30.499C23.7984 30.499 30.6623 23.7829 30.6623 15.4999ZM13.628 22.7224C13.628 25.7905 11.0858 28.2764 7.95027 28.2764V22.7224V9.38817C7.95027 6.31938 10.4933 3.83444 13.628 3.83444H18.1702H18.1707H23.8489C23.8489 6.9001 21.3059 9.38817 18.1707 9.38817H13.6279V13.8336H17.0347H17.0355H22.7132C22.7132 16.9024 20.171 19.389 17.0355 19.389H13.6279V22.7224H13.628Z" fill="#00844A"/>
</svg>
