<svg width="178" height="42" viewBox="0 0 178 42" fill="none" xmlns="http://www.w3.org/2000/svg">
                            <rect x="91" y="15.3599" width="83" height="21" rx="10.5" fill="#680534" fill-opacity="0.5"></rect>
                            <g filter="url(#filter0_d_1_33)">
                            <path d="M47.99 16.45H58.07V20.35H47.99V16.45ZM48.35 28H43.49V7H59.36V10.9H48.35V28ZM62.9202 28V11.86H67.6002V28H62.9202ZM65.2602 9.61C64.4002 9.61 63.7002 9.36 63.1602 8.86C62.6202 8.36 62.3502 7.74 62.3502 7C62.3502 6.26 62.6202 5.64 63.1602 5.14C63.7002 4.64 64.4002 4.39 65.2602 4.39C66.1202 4.39 66.8202 4.63 67.3602 5.11C67.9002 5.57 68.1702 6.17 68.1702 6.91C68.1702 7.69 67.9002 8.34 67.3602 8.86C66.8402 9.36 66.1402 9.61 65.2602 9.61ZM82.3536 11.62C83.6336 11.62 84.7736 11.88 85.7736 12.4C86.7936 12.9 87.5936 13.68 88.1736 14.74C88.7536 15.78 89.0436 17.12 89.0436 18.76V28H84.3636V19.48C84.3636 18.18 84.0736 17.22 83.4936 16.6C82.9336 15.98 82.1336 15.67 81.0936 15.67C80.3536 15.67 79.6836 15.83 79.0836 16.15C78.5036 16.45 78.0436 16.92 77.7036 17.56C77.3836 18.2 77.2236 19.02 77.2236 20.02V28H72.5436V11.86H77.0136V16.33L76.1736 14.98C76.7536 13.9 77.5836 13.07 78.6636 12.49C79.7436 11.91 80.9736 11.62 82.3536 11.62ZM91.4558 28L100.816 7H105.616L115.006 28H109.906L102.226 9.46H104.146L96.4358 28H91.4558ZM96.1358 23.5L97.4258 19.81H108.226L109.546 23.5H96.1358ZM126.995 28.24C125.635 28.24 124.445 27.94 123.425 27.34C122.405 26.74 121.605 25.83 121.025 24.61C120.465 23.37 120.185 21.81 120.185 19.93C120.185 18.03 120.455 16.47 120.995 15.25C121.535 14.03 122.315 13.12 123.335 12.52C124.355 11.92 125.575 11.62 126.995 11.62C128.515 11.62 129.875 11.97 131.075 12.67C132.295 13.35 133.255 14.31 133.955 15.55C134.675 16.79 135.035 18.25 135.035 19.93C135.035 21.63 134.675 23.1 133.955 24.34C133.255 25.58 132.295 26.54 131.075 27.22C129.875 27.9 128.515 28.24 126.995 28.24ZM117.455 33.82V11.86H121.925V15.16L121.835 19.96L122.135 24.73V33.82H117.455ZM126.185 24.4C126.965 24.4 127.655 24.22 128.255 23.86C128.875 23.5 129.365 22.99 129.725 22.33C130.105 21.65 130.295 20.85 130.295 19.93C130.295 18.99 130.105 18.19 129.725 17.53C129.365 16.87 128.875 16.36 128.255 16C127.655 15.64 126.965 15.46 126.185 15.46C125.405 15.46 124.705 15.64 124.085 16C123.465 16.36 122.975 16.87 122.615 17.53C122.255 18.19 122.075 18.99 122.075 19.93C122.075 20.85 122.255 21.65 122.615 22.33C122.975 22.99 123.465 23.5 124.085 23.86C124.705 24.22 125.405 24.4 126.185 24.4ZM148.307 28.24C146.947 28.24 145.757 27.94 144.737 27.34C143.717 26.74 142.917 25.83 142.337 24.61C141.777 23.37 141.497 21.81 141.497 19.93C141.497 18.03 141.767 16.47 142.307 15.25C142.847 14.03 143.627 13.12 144.647 12.52C145.667 11.92 146.887 11.62 148.307 11.62C149.827 11.62 151.187 11.97 152.387 12.67C153.607 13.35 154.567 14.31 155.267 15.55C155.987 16.79 156.347 18.25 156.347 19.93C156.347 21.63 155.987 23.1 155.267 24.34C154.567 25.58 153.607 26.54 152.387 27.22C151.187 27.9 149.827 28.24 148.307 28.24ZM138.767 33.82V11.86H143.237V15.16L143.147 19.96L143.447 24.73V33.82H138.767ZM147.497 24.4C148.277 24.4 148.967 24.22 149.567 23.86C150.187 23.5 150.677 22.99 151.037 22.33C151.417 21.65 151.607 20.85 151.607 19.93C151.607 18.99 151.417 18.19 151.037 17.53C150.677 16.87 150.187 16.36 149.567 16C148.967 15.64 148.277 15.46 147.497 15.46C146.717 15.46 146.017 15.64 145.397 16C144.777 16.36 144.287 16.87 143.927 17.53C143.567 18.19 143.387 18.99 143.387 19.93C143.387 20.85 143.567 21.65 143.927 22.33C144.287 22.99 144.777 23.5 145.397 23.86C146.017 24.22 146.717 24.4 147.497 24.4ZM165.51 28.24C164.13 28.24 162.8 28.08 161.52 27.76C160.26 27.42 159.26 27 158.52 26.5L160.08 23.14C160.82 23.6 161.69 23.98 162.69 24.28C163.71 24.56 164.71 24.7 165.69 24.7C166.77 24.7 167.53 24.57 167.97 24.31C168.43 24.05 168.66 23.69 168.66 23.23C168.66 22.85 168.48 22.57 168.12 22.39C167.78 22.19 167.32 22.04 166.74 21.94C166.16 21.84 165.52 21.74 164.82 21.64C164.14 21.54 163.45 21.41 162.75 21.25C162.05 21.07 161.41 20.81 160.83 20.47C160.25 20.13 159.78 19.67 159.42 19.09C159.08 18.51 158.91 17.76 158.91 16.84C158.91 15.82 159.2 14.92 159.78 14.14C160.38 13.36 161.24 12.75 162.36 12.31C163.48 11.85 164.82 11.62 166.38 11.62C167.48 11.62 168.6 11.74 169.74 11.98C170.88 12.22 171.83 12.57 172.59 13.03L171.03 16.36C170.25 15.9 169.46 15.59 168.66 15.43C167.88 15.25 167.12 15.16 166.38 15.16C165.34 15.16 164.58 15.3 164.1 15.58C163.62 15.86 163.38 16.22 163.38 16.66C163.38 17.06 163.55 17.36 163.89 17.56C164.25 17.76 164.72 17.92 165.3 18.04C165.88 18.16 166.51 18.27 167.19 18.37C167.89 18.45 168.59 18.58 169.29 18.76C169.99 18.94 170.62 19.2 171.18 19.54C171.76 19.86 172.23 20.31 172.59 20.89C172.95 21.45 173.13 22.19 173.13 23.11C173.13 24.11 172.83 25 172.23 25.78C171.63 26.54 170.76 27.14 169.62 27.58C168.5 28.02 167.13 28.24 165.51 28.24Z" fill="black"></path>
                            </g>
                            <path d="M14.1492 12.7164L16.5493 15.1164C17.3731 15.9403 18.6985 15.9403 19.5224 15.1164L21.4925 13.1463L21.9224 12.7164L33.4567 1.18209C33.8866 0.75224 33.6 0 32.9552 0H28.9075C27.6179 0 26.3642 0.501493 25.4328 1.43284L18.0179 8.84776L15.5821 6.41194C14.6866 5.51642 13.4686 5.01493 12.1791 5.01493H6.44775L14.1492 12.7164Z" fill="#761D47"></path>
                            <path d="M21.9578 23.2479L19.5578 20.8479C18.734 20.024 17.4086 20.024 16.5847 20.8479L14.6145 22.818L14.1847 23.2479L2.61455 34.818C2.18469 35.2479 2.47127 36.0001 3.11605 36.0001H7.23545C8.525 36.0001 9.74291 35.4986 10.6384 34.6031L18.0892 27.1524L20.4892 29.5524C21.4205 30.4837 22.6742 30.9852 23.9638 30.9852H29.6951L21.9578 23.2479Z" fill="#FFC005"></path>
                            <path d="M8.88358 17.9821L6.44776 20.4179C5.51642 21.3493 5.01493 22.5672 5.01493 23.8567V29.5881L12.7522 21.8507L15.1522 19.4507C15.9761 18.6269 15.9761 17.3015 15.1522 16.4776L1.18209 2.54328C0.752234 2.11343 0 2.43582 0 3.04478V7.12836C0 8.45373 0.501493 9.67164 1.43284 10.603L8.88358 17.9821Z" fill="#9A28E2"></path>
                            <path d="M34.6385 25.4329L27.2594 18.018L29.6953 15.5464C30.5908 14.6508 31.0923 13.4329 31.0923 12.1792V6.37622L23.3908 14.1135L21.0266 16.5135C20.2027 17.3374 20.2027 18.6628 21.0266 19.4867L23.3908 21.9225L34.9251 33.4926C35.355 33.9225 36.0714 33.6001 36.0714 33.027V28.9076C36.0714 27.5464 35.5699 26.3285 34.6385 25.4329Z" fill="#B185E7"></path>
                            <defs>
                            <filter id="filter0_d_1_33" x="39.4902" y="4.38989" width="137.64" height="37.4302" filterUnits="userSpaceOnUse" color-interpolation-filters="sRGB">
                            <feFlood flood-opacity="0" result="BackgroundImageFix"></feFlood>
                            <feColorMatrix in="SourceAlpha" type="matrix" values="0 0 0 0 0 0 0 0 0 0 0 0 0 0 0 0 0 0 127 0" result="hardAlpha"></feColorMatrix>
                            <feOffset dy="4"></feOffset>
                            <feGaussianBlur stdDeviation="2"></feGaussianBlur>
                            <feColorMatrix type="matrix" values="0 0 0 0 0 0 0 0 0 0 0 0 0 0 0 0 0 0 0.07 0"></feColorMatrix>
                            <feBlend mode="normal" in2="BackgroundImageFix" result="effect1_dropShadow_1_33"></feBlend>
                            <feBlend mode="normal" in="SourceGraphic" in2="effect1_dropShadow_1_33" result="shape"></feBlend>
                            </filter>
                            </defs>
                        </svg>