<svg width="88" height="34" viewBox="0 0 88 34" fill="none" xmlns="http://www.w3.org/2000/svg">
<path fill-rule="evenodd" clip-rule="evenodd" d="M8.81883 16.9522C8.81883 14.6395 6.88773 12.7647 4.5056 12.7647C2.12348 12.7647 0.192383 14.6395 0.192383 16.9522C0.192383 19.2649 2.12348 21.1396 4.5056 21.1396C6.88773 21.1396 8.81883 19.2649 8.81883 16.9522Z" fill="#0047F5"/>
<path fill-rule="evenodd" clip-rule="evenodd" d="M21.5368 4.60452C21.5368 2.29184 19.6057 0.417043 17.2236 0.417043C14.8415 0.417043 12.9104 2.29184 12.9104 4.60452C12.9104 6.9172 14.8415 8.79199 17.2236 8.79199C19.6057 8.79199 21.5368 6.9172 21.5368 4.60452Z" fill="#0047F5"/>
<path fill-rule="evenodd" clip-rule="evenodd" d="M34.2558 16.9522C34.2558 14.6395 32.3247 12.7647 29.9426 12.7647C27.5605 12.7647 25.6294 14.6395 25.6294 16.9522C25.6294 19.2649 27.5605 21.1396 29.9426 21.1396C32.3247 21.1396 34.2558 19.2649 34.2558 16.9522Z" fill="#0047F5"/>
<path fill-rule="evenodd" clip-rule="evenodd" d="M21.5368 29.2998C21.5368 26.9872 19.6057 25.1124 17.2236 25.1124C14.8415 25.1124 12.9104 26.9872 12.9104 29.2998C12.9104 31.6125 14.8415 33.4873 17.2236 33.4873C19.6057 33.4873 21.5368 31.6125 21.5368 29.2998Z" fill="#0047F5"/>
<path fill-rule="evenodd" clip-rule="evenodd" d="M67.4215 21.4934C65.9476 23.7423 63.137 24.9328 60.2236 24.9328C55.4251 24.9328 51.7919 21.6918 51.7919 16.8634C51.7919 11.9358 55.6307 8.82715 60.1894 8.82715C64.7823 8.82715 68.3812 11.9028 68.3812 16.7312C68.3812 17.1611 68.3469 17.6572 68.2784 18.2194H55.9049C56.3505 20.369 58.0643 21.4603 60.4293 21.4603C62.1773 21.4603 63.8225 20.7989 64.7823 19.5422L67.4215 21.4934ZM55.8468 15.5532H64.5101C64.2656 13.4223 62.5539 12.1904 60.2833 12.1904C58.0825 12.1904 56.3359 13.1893 55.8468 15.5532Z" fill="#0047F5"/>
<path d="M44.7957 32.628C49.1421 32.628 51.0665 29.9375 51.0665 25.6195V8.64844H47.2178V25.6195C47.251 27.3799 46.6869 29.0407 44.663 29.0407H42.7719V32.628H44.7957Z" fill="#0047F5"/>
<path d="M49.0247 4.53265C50.1526 4.53265 51.0657 3.67317 51.0657 2.56417C51.0657 1.42745 50.1526 0.595703 49.0247 0.595703C47.9236 0.595703 47.0105 1.42745 47.0105 2.56417C47.0105 3.67317 47.9236 4.53265 49.0247 4.53265Z" fill="#0047F5"/>
<path d="M74.1456 24.9334V11.8053L76.5032 11.7869V8.76679L74.1456 8.71748V7.3562C74.1113 5.46369 74.9015 4.0028 77.6157 4.0028H78.7151V0.416992H76.8254C72.3591 0.416992 70.1603 3.10635 70.1603 7.55541V8.71748H68.1716V11.7869L70.1603 11.8053V24.9334H74.1456Z" fill="#0047F5"/>
<path d="M83.059 24.9334V11.8053L85.4165 11.7869V8.76679L83.059 8.71748V7.3562C83.0246 5.46369 83.8148 4.0028 86.529 4.0028H87.6284V0.416992H85.7388C81.2724 0.416992 79.0736 3.10635 79.0736 7.55541V8.71748H77.085V11.7869L79.0736 11.8053V24.9334H83.059Z" fill="#0047F5"/>
</svg>
