<?xml version="1.0" standalone="no"?>
<!DOCTYPE svg PUBLIC "-//W3C//DTD SVG 1.0//EN" "http://www.w3.org/TR/2001/REC-SVG-20010904/DTD/svg10.dtd">
<svg xmlns="http://www.w3.org/2000/svg" xmlns:xlink="http://www.w3.org/1999/xlink" id="body_1" width="120" height="28">

<g transform="matrix(0.2597403 0 0 0.2568807 0 0)">
	<g transform="matrix(1 0 0 1 120.6769 25)">
	</g>
    <path transform="matrix(1 0 0 1 120.6769 25)"  d="M49.21 52.01C 52.5 52.01 53.76 49.56 53.76 46.97L53.76 46.97L53.76 8.89C 53.76 4.34 52.01 0.490005 47.53 0.490005C 44.03 0.490005 41.79 2.03 38.99 8.89L38.99 8.89L26.95 38.08L26.81 38.08L14.98 9.03C 12.18 2.24001 10.01 0.490005 6.37 0.490005C 1.89001 0.490005 0 4.34 0 8.89L0 8.89L0 46.97C 0 49.56 1.26001 52.01 4.54999 52.01C 7.76999 52.01 9.03 49.56 9.03 46.97L9.03 46.97L9.03 17.64L9.17001 17.64L20.37 44.1C 22.54 49.21 24.15 52.01 26.88 52.01C 29.54 52.01 31.22 49.21 33.32 44.1L33.32 44.1L44.59 17.64L44.73 17.64L44.73 46.97C 44.73 49.56 45.99 52.01 49.21 52.01zM81.11 52.64C 93.01 52.64 100.36 45.15 100.36 33.88C 100.36 22.4 92.87 15.19 81.11 15.19C 69.28 15.19 61.79 22.4 61.79 33.88C 61.79 45.15 69.21 52.64 81.11 52.64zM81.11 43.68C 75.93 43.68 72.08 40.04 72.08 33.88C 72.08 27.86 75.65 24.15 80.97 24.15C 86.5 24.15 90.07 27.86 90.07 33.88C 90.07 40.04 86.5 43.68 81.11 43.68zM137.23 52.01C 140.73 52.01 142.2 49.42 142.2 46.62L142.2 46.62L142.2 32.76C 142.2 20.79 136.53 15.19 127.29 15.19C 122.18 15.19 117.42 17.92 115.46 21.35L115.46 21.35L115.32 21.35L115.32 20.09C 115.32 17.85 114.13 15.75 111.26 15.75C 108.46 15.75 107.2 17.85 107.2 20.09L107.2 20.09L107.2 46.62C 107.2 49.42 108.74 52.01 112.24 52.01C 115.74 52.01 117.21 49.42 117.21 46.62L117.21 46.62L117.28 33.6C 117.28 27.79 120.36 24.22 125.33 24.22C 130.51 24.22 132.19 28.49 132.19 33.6L132.19 33.6L132.19 46.62C 132.19 49.42 133.73 52.01 137.23 52.01zM169.06 52.64C 172.84 52.64 176.62 52.01 179.07 50.4C 180.75 49.35 181.8 47.81 181.8 45.78C 181.8 43.75 180.33 41.86 177.67 41.86C 174.8 41.86 173.68 43.54 168.99 43.54C 161.78 43.54 158.98 39.97 158.98 37.31L158.98 37.31L177.67 37.31C 181.73 37.31 183.2 35.35 183.2 31.71C 183.2 22.12 177.25 15.19 166.54 15.19C 156.04 15.19 148.62 22.61 148.62 33.67C 148.62 44.94 155.48 52.64 169.06 52.64zM172.98 30.52L158.91 30.52C 158.91 26.6 162.2 23.59 166.33 23.59C 171.23 23.59 173.05 26.53 173.05 29.47C 173.05 29.75 173.05 30.24 172.98 30.52zM196.15 67.55C 203.08 67.55 207.63 63.91 212.53 51.38L212.53 51.38L223.59 22.68C 225.06 18.83 223.24 15.75 219.32 15.75C 215.96 15.75 214.77 18.06 214.07 20.23L214.07 20.23L206.51 43.89L206.3 43.89L198.67 20.16C 197.97 18.06 196.85 15.75 193.77 15.75C 189.85 15.75 187.54 19.53 188.8 22.89L188.8 22.89L200.91 53.9C 199.86 57.33 198.25 58.52 195.03 58.52L195.03 58.52L194.12 58.52C 191.67 58.52 189.85 60.06 189.85 62.58C 189.85 64.68 190.83 66.15 192.65 66.99C 193.56 67.41 194.75 67.55 196.15 67.55zM256.77 52.64C 260.06 52.64 263.84 52.08 266.36 50.47C 268.11 49.42 269.3 47.95 269.3 45.85C 269.3 43.68 267.9 41.72 265.45 41.72C 262.58 41.72 261.11 43.19 256.56 43.19C 247.11 43.19 239.76 37.03 239.76 26.32C 239.76 15.68 246.62 9.45 256.56 9.45C 260.27 9.45 262.51 10.85 265.03 10.85C 267.62 10.85 269.37 9.17 269.37 6.37C 269.37 4.55 268.25 3.14999 266.64 2.17C 263.98 0.630005 259.99 0 256.77 0C 239.69 0 229.47 10.78 229.47 26.32C 229.47 41.51 240.39 52.64 256.77 52.64zM305.77 52.64C 309.76 52.64 311.37 50.33 311.37 47.6C 311.37 45.99 310.67 44.59 308.99 43.19C 307.73 42.14 307.38 41.93 307.38 38.85L307.38 38.85L307.38 35.56C 307.38 24.92 305.07 15.19 290.16 15.19C 287.08 15.19 283.37 15.61 280.57 16.8C 278.33 17.71 276.72 19.46 276.72 21.63C 276.72 24.36 278.19 25.76 280.64 25.76C 281.41 25.76 282.46 25.48 283.58 25.2C 285.12 24.85 286.87 24.43 288.62 24.43C 293.66 24.43 297.72 25.76 297.72 31.99C 294.71 30.31 291.21 29.61 287.92 29.61C 280.22 29.61 273.78 33.88 273.78 41.51C 273.78 48.79 278.75 52.64 287.01 52.64C 291.7 52.64 295.9 50.68 298.77 47.04L298.77 47.04L298.91 47.04C 299.47 49.63 301.85 52.64 305.77 52.64zM289.32 44.8C 285.89 44.8 284.14 43.54 284.14 40.95C 284.14 38.08 286.87 36.54 291.07 36.54C 293.31 36.54 295.76 37.17 297.72 38.43C 297.3 41.72 293.38 44.8 289.32 44.8zM332.16 52.64C 335.73 52.64 338.39 51.66 339.72 49.98C 340.49 49 340.91 47.74 340.91 46.34C 340.91 43.82 339.23 42.28 337.41 42.28C 335.52 42.28 335.1 43.26 333.28 43.26C 330.76 43.26 330.34 41.51 330.34 38.64L330.34 38.64L330.34 24.99L335.59 24.99C 337.97 24.99 339.93 23.03 339.93 20.58C 339.93 18.2 337.97 16.24 335.59 16.24L335.59 16.24L330.34 16.24L330.34 11.97C 330.34 9.66 329.22 7.7 326.49 7.7C 324.39 7.7 322.92 9.31 321.94 11.69C 321.38 13.02 321.03 14.56 320.75 16.24L320.75 16.24L318.44 16.24C 316.06 16.24 314.1 18.2 314.1 20.58C 314.1 23.03 316.06 24.99 318.44 24.99L318.44 24.99L320.33 24.99L320.33 39.27C 320.33 46.34 323.55 52.64 332.16 52.64z" stroke="none" fill="#000000" fill-rule="nonzero" />
	<g transform="matrix(1 0 0 1 1.999557 54.42407)">
	</g>
    <path transform="matrix(1 0 0 1 1.999557 54.42407)"  d="M23.1773 38.0759C 15.1773 35.5221 11.1773 30.6888 11.1773 23.5759C 11.1773 12.9066 23.1963 6.26431 17.397 0.970993C 13.6773 -2.42407 -1.82268 2.57593 0.177322 24.0759C 1.03291 33.2736 9.67732 44.0759 27.1773 44.5759" stroke="none" fill="#FF7600" fill-rule="nonzero" />
	<g transform="matrix(1 0 0 1 0 52.4165)">
	</g>
    <path transform="matrix(1 0 0 1 0 52.4165)"  d="M20.7448 1.50137C 17.8122 -1.17531 11.8142 -0.166092 7.33865 3.67824C 2.00647 8.25839 -0.768219 16.0166 0.185486 26.2687C 1.30005 38.2503 12.5258 48.1086 29.1198 48.5827C 30.2239 48.6142 31.1445 47.7447 31.1761 46.6406C 31.2076 45.5365 30.3381 44.6159 29.234 44.5843C 14.6073 44.1664 5.09018 35.8086 4.16827 25.8983C 3.32954 16.8818 5.64578 10.4054 9.94501 6.71252C 13.0598 4.03705 16.8844 3.39352 18.0482 4.45575L18.0482 4.45575L18.2092 4.60605L18.3573 4.75237L18.4919 4.89616L18.6128 5.03888C 18.6318 5.06265 18.6502 5.08646 18.668 5.11029L18.668 5.11029L18.7674 5.25409L18.852 5.40042C 19.0961 5.86932 19.1112 6.39801 18.8389 7.19286L18.8389 7.19286L18.7433 7.45294L18.6281 7.73218L18.493 8.032L18.3376 8.35384L18.1614 8.69914L17.9641 9.06938L17.7452 9.46597L17.241 10.344L16.4822 11.6156L15.3745 13.4265C 12.5375 18.032 11.1769 21.4628 11.1769 25.5835C 11.1769 33.6194 15.7819 39.1838 24.5687 41.9888C 25.6209 42.3247 26.7462 41.744 27.0822 40.6917C 27.4181 39.6395 26.8373 38.5141 25.7851 38.1782C 18.5719 35.8756 15.1769 31.7733 15.1769 25.5835C 15.1769 22.4962 16.2204 19.7546 18.5195 15.9514L18.5195 15.9514L20.7447 12.3666L20.8665 12.164C 21.6371 10.8653 22.1611 9.81989 22.511 8.80316C 23.4712 6.01323 22.9799 3.54146 20.7448 1.50137z" stroke="none" fill="#000000" fill-rule="nonzero" />
	<g transform="matrix(1 0 0 1 24.07408 54.42407)">
	</g>
    <path transform="matrix(1 0 0 1 24.07408 54.42407)"  d="M0 9.47943L0.094986 9.63791C 2.37122 13.3392 6.38313 15.8588 10.9968 16.0626C 14.1263 9.56241 19.6225 4.89587 15.3224 0.970993C 12.6675 -1.4523 4.0108 0.401413 0 9.47943z" stroke="none" fill="#000000" fill-rule="nonzero" />
	<g transform="matrix(1 0 0 1 22.67688 40)">
	</g>
    <path transform="matrix(1 0 0 1 22.67688 40)"  d="M30 63.9682C 43.8524 63.9682 60 65.5735 60 45.9771C 60 26.3808 35.9016 0 30 0C 24.0984 0 0 26.3808 0 45.9771C 0 65.5735 16.1476 63.9682 30 63.9682z" stroke="none" fill="#FF7600" fill-rule="nonzero" />
	<g transform="matrix(1 0 0 1 20.67688 38)">
	</g>
    <path transform="matrix(1 0 0 1 20.67688 38)"  d="M32 0C 30.2036 0 27.5872 1.47467 24.6096 3.96503L24.6096 3.96503L24.0289 4.45958L23.4399 4.97878L22.8434 5.52185C 22.7434 5.6143 22.6431 5.70773 22.5426 5.80211L22.5426 5.80211L21.9361 6.37962C 21.8346 6.47774 21.7328 6.57677 21.6307 6.6767L21.6307 6.6767L21.0161 7.28699L20.3968 7.91821L19.7737 8.56964C 19.6695 8.67984 19.5653 8.79086 19.4609 8.90268L19.4609 8.90268L18.8334 9.58299L18.2039 10.2816L17.5732 10.9979L16.942 11.731L16.3109 12.4802L15.6809 13.2449L15.0525 14.0241L14.4266 14.8173C 14.3225 14.9506 14.2186 15.0844 14.1148 15.2188L14.1148 15.2188L13.4939 16.0315L13.1851 16.4423C 5.11469 27.2367 0 38.6103 0 47.9771C 0 56.438 2.86795 61.9626 8.37328 64.9787C 11.2075 66.5314 14.406 67.3555 18.67 67.7332L18.67 67.7332L19.5676 67.805C 19.7198 67.8159 19.8734 67.8264 20.0283 67.8363L20.0283 67.8363L20.9741 67.8901L21.9538 67.9325L22.9687 67.9641C 23.1409 67.9685 23.3146 67.9725 23.4898 67.9761L23.4898 67.9761L24.5602 67.9925C 24.7418 67.9945 24.925 67.996 25.1098 67.9972L25.1098 67.9972L27.3809 67.9961L31.588 67.9686L33.2416 67.9719L37.4738 67.9995L38.8858 67.9972L39.9759 67.9855C 40.3329 67.98 40.6835 67.9729 41.028 67.9641L41.028 67.9641L42.0434 67.9325L43.0236 67.8901L43.9698 67.8363C 44.1247 67.8264 44.2783 67.8159 44.4306 67.805L44.4306 67.805L45.3286 67.7332C 49.594 67.3555 52.7925 66.5314 55.6267 64.9787C 61.132 61.9626 64 56.438 64 47.9771C 64 38.7718 59.0602 27.6283 51.2297 17.0012L51.2297 17.0012L50.5061 16.0315L49.8852 15.2188L49.2608 14.419L48.6336 13.6327C 48.5288 13.5028 48.424 13.3735 48.3191 13.2449L48.3191 13.2449L47.6891 12.4802L47.058 11.731L46.4268 10.9979L45.7961 10.2816L45.1666 9.58299L44.5391 8.90268L43.9143 8.24146L43.2931 7.60004C 43.1898 7.49483 43.0868 7.39047 42.9839 7.28699L42.9839 7.28699L42.3693 6.6767C 42.2672 6.57677 42.1654 6.47774 42.0639 6.37962L42.0639 6.37962L41.4574 5.80211C 41.3569 5.70773 41.2566 5.6143 41.1566 5.52185L41.1566 5.52185L40.5601 4.97878L39.9711 4.45958L39.3904 3.96503C 36.4128 1.47467 33.7964 0 32 0zM32 4C 32.1432 4 32.4114 4.07964 32.775 4.24364L32.775 4.24364L33.0651 4.38254C 33.1675 4.43416 33.2753 4.49112 33.3882 4.5535L33.3882 4.5535L33.7416 4.75699C 33.8028 4.79364 33.8652 4.83167 33.9287 4.87106C 35.0409 5.56148 36.3759 6.59811 37.8395 7.91498C 40.955 10.7181 44.4256 14.5766 47.6113 18.8375C 55.2126 29.0044 60 39.6503 60 47.9771C 60 55.0536 57.8468 59.2015 53.7049 61.4706C 51.5247 62.665 48.9208 63.3548 45.4066 63.704L45.4066 63.704L44.5792 63.7786C 44.2979 63.8015 44.011 63.8225 43.7182 63.8416L43.7182 63.8416L42.8222 63.8933C 42.5176 63.9088 42.2069 63.9224 41.8899 63.9343L41.8899 63.9343L40.92 63.965L39.9111 63.9858L38.8619 63.9973L36.641 63.9961L32.2999 63.9684L30.7367 63.9719L26.5172 63.9995L25.1337 63.9973L24.0851 63.9858L23.0768 63.965L22.1074 63.9343C 21.7906 63.9224 21.48 63.9088 21.1755 63.8933L21.1755 63.8933L20.2799 63.8416C 19.9873 63.8225 19.7005 63.8015 19.4193 63.7786L19.4193 63.7786L18.5922 63.704C 15.0792 63.3548 12.4753 62.665 10.2952 61.4706C 6.15324 59.2015 4 55.0536 4 47.9771C 4 39.6503 8.78743 29.0044 16.3887 18.8375C 19.5744 14.5766 23.045 10.7181 26.1605 7.91498C 27.6241 6.59811 28.9591 5.56148 30.0713 4.87106L30.0713 4.87106L30.2584 4.75699L30.6118 4.5535C 30.7247 4.49112 30.8325 4.43416 30.9349 4.38254L30.9349 4.38254L31.225 4.24364C 31.5886 4.07964 31.8568 4 32 4z" stroke="none" fill="#000000" fill-rule="nonzero" />
	<g transform="matrix(1 0 0 1 71.67688 71.57426)">
	</g>
    <path transform="matrix(1 0 0 1 71.67688 71.57426)"  d="M7.90451 0C 9.82309 4.76669 11 9.54314 11 13.9948C 11 17.2871 10.5687 20.0244 9.78278 22.2996C 4.24512 21.4684 0 16.6928 0 10.9257C 0 5.84471 3.29518 1.53333 7.86511 0.0120087L7.86511 0.0120087L7.90451 0z" stroke="none" fill="#000000" fill-rule="nonzero" />
	<g transform="matrix(1 0 0 1 22.67688 72.63783)">
	</g>
    <path transform="matrix(1 0 0 1 22.67688 72.63783)"  d="M3.17572 0C 6.66541 2.01125 9 5.67543 9 9.86217C 9 14.9906 5.49704 19.335 0.659012 20.8178C 0.229156 18.9389 0 16.8007 0 14.3681C 0 9.8027 1.20444 4.90546 3.16939 0.0170135L3.16939 0.0170135L3.17572 0z" stroke="none" fill="#000000" fill-rule="nonzero" />
	<g transform="matrix(1 0 0 1 32.29333 53.5)">
	</g>
    <path transform="matrix(1 0 0 1 32.29333 53.5)"  d="M1.01868 0L0.0129852 6.2018C -0.0650635 6.68307 0.215347 7.15048 0.676712 7.30815C 3.97726 8.43605 10.3795 9 19.8835 9C 25.3431 9 32.0641 8.96524 35.3835 8.5C 37.0485 8.26665 38.3818 7.59998 39.3835 6.5L39.3835 6.5L44.7484 0L1.01868 0z" stroke="none" fill="#FFFFFF" fill-rule="nonzero" />
	<g transform="matrix(1 0 0 1 30.29315 51.5)">
	</g>
    <path transform="matrix(1 0 0 1 30.29315 51.5)"  d="M50.9926 0L1.31706 0L0.0389557 7.88165C -0.19519 9.32547 0.646057 10.7277 2.03015 11.2007C 2.48634 11.3566 2.99126 11.502 3.54524 11.6371L3.54524 11.6371L4.11559 11.7687L4.71872 11.8935C 4.92523 11.9339 5.13724 11.9732 5.35472 12.0114L5.35472 12.0114L6.02365 12.1225C 6.13789 12.1405 6.25351 12.1581 6.37048 12.1755L6.37048 12.1755L7.08897 12.2765C 7.21149 12.2928 7.33536 12.3087 7.46063 12.3244L7.46063 12.3244L8.22884 12.4153C 8.35963 12.4299 8.49182 12.4442 8.6254 12.4583L8.6254 12.4583L9.44348 12.5391L10.2949 12.6133L11.1798 12.6809C 11.3301 12.6917 11.4817 12.7021 11.6348 12.7123L11.6348 12.7123L12.5699 12.77L13.5387 12.8212L14.5412 12.8659L15.5774 12.9042L17.1953 12.9494L18.3163 12.9716L19.4713 12.9874L21.2678 12.9992L25.4668 12.9912L28.1572 12.9675L29.7691 12.9422L31.2446 12.9082L32.9087 12.8525L33.8169 12.8114L34.6612 12.7642L35.1902 12.7291L35.6933 12.6911L36.4012 12.6283L37.0562 12.5582L37.465 12.5074C 37.5313 12.4986 37.5967 12.4897 37.6613 12.4806C 39.6304 12.2047 41.2961 11.4209 42.5906 10.131L42.5906 10.131L42.8295 9.88196L42.9262 9.7731L50.9926 0zM42.5037 4L39.8807 7.177L39.7332 7.33226C 39.1094 7.95297 38.2449 8.35974 37.1061 8.51936L37.1061 8.51936L36.7426 8.56714L36.1519 8.63324L35.2757 8.71135L34.7981 8.74629L33.7599 8.80832L32.9057 8.8483L31.6616 8.89336L29.9287 8.93732L28.3931 8.96335L25.3673 8.99139L21.8837 9L20.1142 8.99307L18.4087 8.97217L17.3154 8.9505L16.2572 8.9227L15.2343 8.88878L14.2466 8.84879L13.2942 8.80276L12.3772 8.75073L11.4958 8.6927L10.6499 8.62874L9.83971 8.55887L9.06526 8.48311C 8.93918 8.47 8.81458 8.45663 8.69147 8.44304L8.69147 8.44304L7.97079 8.35852C 7.73657 8.32938 7.50832 8.29927 7.28607 8.26819L7.28607 8.26819L6.63739 8.1721L6.02481 8.07028C 5.82666 8.03539 5.63452 7.99954 5.44844 7.96275L5.44844 7.96275L4.90834 7.84955L4.40459 7.73071L4.12672 7.658L4.71973 4L42.5037 4z" stroke="none" fill="#000000" fill-rule="nonzero" />
	<g transform="matrix(1 0 0 1 27.67688 94.5)">
	</g>
    <path transform="matrix(1 0 0 1 27.67688 94.5)"  d="M10.25 12C 15.9109 12 20.5 11.4807 20.5 8.09877C 20.5 4.71687 15.9109 0 10.25 0C 4.58908 0 0 4.71687 0 8.09877C 0 11.4807 4.58908 12 10.25 12zM40.75 12C 46.4109 12 51 11.4807 51 8.09877C 51 4.71687 46.4109 0 40.75 0C 35.0891 0 30.5 4.71687 30.5 8.09877C 30.5 11.4807 35.0891 12 40.75 12z" stroke="none" fill="#FF7600" fill-rule="nonzero" />
	<g transform="matrix(1 0 0 1 25.67688 92.5)">
	</g>
    <path transform="matrix(1 0 0 1 25.67688 92.5)"  d="M12.25 0C 5.98059 0 0 5.16508 0 10.0988C 0 12.715 1.68231 14.4155 4.43115 15.2343C 5.55447 15.569 6.85469 15.7755 8.45477 15.8884L8.45477 15.8884L9.21501 15.9341C 9.73663 15.9602 10.2884 15.978 10.874 15.9884L10.874 15.9884L11.7781 15.9987C 11.9332 15.9996 12.0904 16 12.25 16L12.25 16L13.1805 15.9949C 13.9338 15.9864 14.633 15.9668 15.285 15.9341L15.285 15.9341L16.0452 15.8884C 17.6453 15.7755 18.9455 15.569 20.0688 15.2343C 22.8177 14.4155 24.5 12.715 24.5 10.0988C 24.5 5.16508 18.5194 0 12.25 0zM12.25 4C 16.4299 4 20.5 7.51511 20.5 10.0988C 20.5 10.7258 19.8651 11.2155 18.4217 11.5407L18.4217 11.5407L18.0597 11.6156L17.6661 11.6841L17.2404 11.7461L16.782 11.8015L16.2905 11.8504L15.7652 11.8924L15.2057 11.9277L14.6115 11.9561L13.9819 11.9775L13.3165 11.9919L12.6147 11.9991L11.8853 11.9991L11.1835 11.9919L10.5181 11.9775L9.88852 11.9561L9.29425 11.9277L8.73477 11.8924L8.20952 11.8504L7.71799 11.8015L7.25964 11.7461L6.83392 11.6841L6.44032 11.6156L6.07831 11.5407C 4.63492 11.2155 4 10.7258 4 10.0988C 4 7.51511 8.0701 4 12.25 4zM42.75 0C 36.4806 0 30.5 5.16508 30.5 10.0988C 30.5 12.715 32.1823 14.4155 34.9312 15.2343C 36.0545 15.569 37.3547 15.7755 38.9548 15.8884L38.9548 15.8884L39.715 15.9341C 40.2366 15.9602 40.7884 15.978 41.374 15.9884L41.374 15.9884L42.2781 15.9987C 42.4332 15.9996 42.5904 16 42.75 16L42.75 16L43.6805 15.9949C 44.4338 15.9864 45.133 15.9668 45.785 15.9341L45.785 15.9341L46.5452 15.8884C 48.1453 15.7755 49.4455 15.569 50.5688 15.2343C 53.3177 14.4155 55 12.715 55 10.0988C 55 5.16508 49.0194 0 42.75 0zM42.75 4C 46.9299 4 51 7.51511 51 10.0988C 51 10.7258 50.3651 11.2155 48.9217 11.5407L48.9217 11.5407L48.5597 11.6156L48.1661 11.6841L47.7404 11.7461L47.282 11.8015L46.7905 11.8504L46.2652 11.8924L45.7057 11.9277L45.1115 11.9561L44.4819 11.9775L43.8165 11.9919L43.1147 11.9991L42.3853 11.9991L41.6835 11.9919L41.0181 11.9775L40.3885 11.9561L39.7943 11.9277L39.2348 11.8924L38.7095 11.8504L38.218 11.8015L37.7596 11.7461L37.3339 11.6841L36.9403 11.6156L36.5783 11.5407C 35.1349 11.2155 34.5 10.7258 34.5 10.0988C 34.5 7.51511 38.5701 4 42.75 4z" stroke="none" fill="#000000" fill-rule="nonzero" />
	<g transform="matrix(1 0 0 1 69.75439 6.4646)">
	</g>
    <path transform="matrix(1 0 0 1 69.75439 6.4646)"  d="M0 0.0799408C 4.40115 -0.145462 8.80811 0.105774 13.2208 0.833649C 19.8398 1.92545 26.616 5.73036 27.4318 7.79683L27.4318 7.79683L15.5754 18.9244L0 0.0799408z" stroke="none" fill="#FF7600" fill-rule="nonzero" />
	<g transform="matrix(1 0 0 1 67.75322 4.464767)">
	</g>
    <path transform="matrix(1 0 0 1 67.75322 4.464767)"  d="M1.90085 0.08255C 0.258575 0.166672 -0.586075 2.08658 0.461563 3.35411L0.461563 3.35411L16.0369 22.1985C 16.7722 23.0881 18.1057 23.1725 18.9472 22.3827L18.9472 22.3827L30.8036 11.2552C 31.4014 10.6941 31.5963 9.82504 31.2952 9.06245C 30.5623 7.20583 27.5122 5.04344 23.732 3.36346L23.732 3.36346L23.0576 3.07216C 22.717 2.92918 22.3714 2.79031 22.0219 2.6561L22.0219 2.6561L21.3182 2.39406C 20.2558 2.01077 19.1651 1.67265 18.0756 1.39433L18.0756 1.39433L17.3498 1.21782C 16.7456 1.07835 16.1438 0.958343 15.5495 0.860321C 10.996 0.109207 6.4456 -0.150192 1.90085 0.08255zM14.8985 4.80698C 17.7891 5.28378 20.9305 6.3633 23.5927 7.72919L23.5927 7.72919L23.8466 7.86131C 24.9009 8.4176 25.7987 8.98811 26.4505 9.46924L26.4505 9.46924L26.6771 9.64082L17.7629 18.0078L6.19278 4.01109L6.66954 4.02017C 9.40947 4.09177 12.1523 4.35399 14.8985 4.80698z" stroke="none" fill="#000000" fill-rule="nonzero" />
	<g transform="matrix(1 0 0 1 86.39441 13.83966)">
	</g>
    <path transform="matrix(1 0 0 1 86.39441 13.83966)"  d="M10.5823 0.0258789C 11.6336 3.47075 7.80045 11.2303 3.44531 16.4683C 3.11288 16.8681 2.54382 17.4796 1.73808 18.3028C 0.12088 12.8559 -0.367798 9.69698 0.272141 8.82625C 3.87219 3.92769 10.4601 -0.374405 10.5823 0.0258789z" stroke="none" fill="#FFFFFF" fill-rule="nonzero" />
	<g transform="matrix(1 0 0 1 84.39435 11.83801)">
	</g>
    <path transform="matrix(1 0 0 1 84.39435 11.83801)"  d="M12.9699 0.0477448C 13.6495 0.192856 14.261 0.675934 14.4953 1.44376C 15.1649 3.63811 14.4261 6.97287 12.8109 10.5402L12.8109 10.5402L12.4763 11.2565C 11.1503 14.0122 9.32996 16.869 7.25525 19.4179L7.25525 19.4179L6.87531 19.8765L6.62573 20.1614L6.16611 20.663L5.60223 21.256L5.16748 21.7034C 4.10054 22.7935 2.25504 22.336 1.82088 20.8737L1.82088 20.8737L1.47261 19.68L1.1597 18.5609L0.971054 17.8552L0.798553 17.181L0.64241 16.5375L0.502762 15.9242L0.379837 15.3403L0.273773 14.785L0.184769 14.2579C -0.163742 12.0332 -0.0268707 10.579 0.660583 9.64351C 2.38715 7.2942 4.84506 4.92331 7.50595 2.86009C 8.55219 2.04892 9.56744 1.3383 10.381 0.839691C 10.7895 0.589249 11.1421 0.395218 11.4358 0.263947C 11.664 0.161926 11.8719 0.0879364 12.109 0.0424347C 12.3767 -0.00895691 12.6478 -0.0210266 12.9699 0.0477448zM10.3567 5.78046L10.3803 5.69765L9.957 6.02119L9.51093 6.37196C 7.44067 8.0229 5.54004 9.86304 4.16928 11.634L4.16928 11.634L4.01265 11.841L4.00247 11.985C 3.99236 12.2544 4.01344 12.6177 4.0686 13.0669L4.0686 13.0669L4.13522 13.5443L4.17841 13.8108C 4.26796 14.341 4.39029 14.9413 4.54547 15.6106L4.54547 15.6106L4.69012 16.2137L4.84375 16.0139C 7.43799 12.6064 9.50845 8.65347 10.3567 5.78046z" stroke="none" fill="#000000" fill-rule="nonzero" />
	<g transform="matrix(1 0 0 1 13.67676 2.005066)">
	</g>
    <path transform="matrix(1 0 0 1 13.67676 2.005066)"  d="M23 6.24312C 20.2093 3.96379 17.1888 2.35234 13.9383 1.40877C 9.0627 -0.00657654 0.00140381 -0.550003 0 0.695068L0 0.695068L9.98605 19L23 6.24312z" stroke="none" fill="#000000" fill-rule="nonzero" />
	<g transform="matrix(1 0 0 1 13.13417 1.542007)">
	</g>
    <path transform="matrix(1 0 0 1 13.13417 1.542007)"  d="M5.66862 0.0635834C 8.75439 0.232239 12.2194 0.752563 14.5777 1.43716C 17.8939 2.3998 20.9743 4.04321 23.8163 6.36446C 24.0471 6.55295 24.0628 6.90018 23.85 7.10876L23.85 7.10876L10.8361 19.8656C 10.5992 20.0978 10.206 20.0392 10.0471 19.748L10.0471 19.748L0.0610657 1.4431C 0.0209045 1.36948 0 1.28694 0 1.20308C 0.000808716 0.485794 0.866501 0.137283 2.45287 0.0339203L2.45287 0.0339203L2.90327 0.0117187C 2.98129 0.00900269 3.06076 0.0067749 3.14168 0.00500488L3.14168 0.00500488L3.64447 0L4.18138 0.00575256L4.75175 0.0217133L5.35493 0.0473328C 5.45816 0.0523682 5.56273 0.057785 5.66862 0.0635834zM1.86887 1.10948C 1.5817 1.14752 1.34865 1.19542 1.1778 1.25023L1.1778 1.25023L1.10884 1.27406L10.6088 18.6881L22.7478 6.78906L22.2077 6.37657C 19.7446 4.53893 17.109 3.21326 14.299 2.39752C 12.0208 1.73621 8.62907 1.22688 5.61404 1.06209L5.61404 1.06209L4.90913 1.02989L4.242 1.01224C 3.37982 0.998428 2.63126 1.02353 2.04759 1.08784L2.04759 1.08784L1.86887 1.10948z" stroke="none" fill="#000000" fill-rule="nonzero" />
	<g transform="matrix(1 0 0 1 13.6785 3.872101)">
	</g>
    <path transform="matrix(1 0 0 1 13.6785 3.872101)"  d="M0.464767 0C -0.799378 3.41206 0.464767 18.7881 4.87878 25.8972C 5.29276 26.5639 7.82144 23.866 8.80234 21.3271C 9.78323 18.7881 10.3301 14.9932 9.78323 12.6947C 8.66864 8.01013 5.56248 3.77856 0.464767 0z" stroke="none" fill="#FFFFFF" fill-rule="nonzero" />
	<g transform="matrix(1 0 0 1 11.46889 2.056747)">
	</g>
    <path transform="matrix(1 0 0 1 11.46889 2.056747)"  d="M0.630859 1.306C -0.254837 3.69658 -0.169037 8.80238 0.645142 14.1739L0.645142 14.1739L0.806274 15.1835C 1.68228 20.41 3.2276 25.7422 5.22118 28.953C 6.13614 30.4266 7.49812 30.243 8.64836 29.5067C 9.13637 29.1943 9.6486 28.7247 10.1651 28.1429C 11.201 26.9761 12.1621 25.4655 12.7095 24.0487C 13.8843 21.0078 14.3947 16.8562 13.7704 14.2326C 12.5376 9.05116 9.14946 4.43542 3.69725 0.394089C 2.62659 -0.399506 1.09387 0.0563049 0.630859 1.306zM3.9664 5.79047L4.07555 5.88974C 7.17441 8.7709 9.09404 11.8591 9.87906 15.1585C 10.2956 16.9093 9.88309 20.2651 8.97824 22.6072L8.97824 22.6072L8.85887 22.895C 8.60094 23.4787 8.23158 24.1056 7.81828 24.6791L7.81828 24.6791L7.6274 24.9345L7.4935 24.6272C 5.33289 19.5612 3.96333 11.3774 3.96156 6.32883L3.96156 6.32883L3.9664 5.79047z" stroke="none" fill="#000000" fill-rule="nonzero" />
	<g transform="matrix(1 0 0 1 16.67688 2)">
	</g>
    <path transform="matrix(1 0 0 1 16.67688 2)"  d="M36.5 54C 54.7685 54 73 49.9127 73 34.3106C 73 18.7086 54.7685 0 36.5 0C 18.2315 0 0 18.7086 0 34.3106C 0 49.9127 18.2315 54 36.5 54z" stroke="none" fill="#FF7600" fill-rule="nonzero" />
	<g transform="matrix(1 0 0 1 14.67688 0)">
	</g>
    <path transform="matrix(1 0 0 1 14.67688 0)"  d="M38.5 0C 19.6815 0 0 19.0658 0 36.3106C 0 44.493 4.51543 50.3273 12.6024 53.8405C 19.1928 56.7035 28.0396 58 38.5 58C 48.9604 58 57.8072 56.7035 64.3976 53.8405C 72.4846 50.3273 77 44.493 77 36.3106C 77 19.0658 57.3185 0 38.5 0zM38.5 4C 55.1373 4 73 21.3039 73 36.3106C 73 47.9508 61.196 53.5444 41.0601 53.9732L41.0601 53.9732L39.7908 53.9933C 39.3641 53.9978 38.9338 54 38.5 54C 38.0662 54 37.6359 53.9978 37.2092 53.9933L37.2092 53.9933L35.9399 53.9732C 15.8041 53.5444 4 47.9508 4 36.3106C 4 21.3039 21.8627 4 38.5 4z" stroke="none" fill="#000000" fill-rule="nonzero" />
	<g transform="matrix(1 0 0 1 14.38829 1.630875)">
	</g>
    <path transform="matrix(1 0 0 1 14.38829 1.630875)"  d="M28.791 3.00592L28.743 0L25.9891 1.20573C 14.6457 6.17221 4.76724 17.1145 1.45665 28.1731L1.45665 28.1731L0 33.0388L4.38313 30.4726C 7.30565 28.7615 9.57147 26.2218 10.9855 22.8497L10.9855 22.8497L11.1511 22.4411C 12.4768 19.0531 14.2251 17.6091 18.1252 16.0717L18.1252 16.0717L18.8152 15.8068L19.9969 15.3636C 20.1096 15.3206 20.22 15.2781 20.3281 15.2362L20.3281 15.2362L20.9498 14.9902L21.5214 14.7533C 21.7041 14.6755 21.8793 14.5986 22.0477 14.5222L22.0477 14.5222L22.5337 14.2938C 23.78 13.6852 24.6474 13.0692 25.5519 12.1665C 27.5767 10.1456 28.6441 7.29448 28.7873 3.28369C 28.791 3.1812 28.7925 3.09766 28.791 3.00592z" stroke="none" fill="#000000" fill-rule="nonzero" />
	<g transform="matrix(1 0 0 1 42.67688 5.5)">
	</g>
    <path transform="matrix(1 0 0 1 42.67688 5.5)"  d="M1.18742 10.9596C 2.28249 11.2896 3.64595 9.56046 4.23279 7.09747C 4.81964 4.63449 4.40764 2.37035 3.31258 2.04037C 2.21751 1.71039 0.85405 3.43953 0.267212 5.90253C -0.319626 8.36551 0.0923615 10.6297 1.18742 10.9596zM19.8126 10.9596C 18.7175 11.2896 17.354 9.56046 16.7672 7.09747C 16.1804 4.63449 16.5924 2.37035 17.6874 2.04037C 18.7825 1.71039 20.146 3.43953 20.7328 5.90253C 21.3196 8.36551 20.9076 10.6297 19.8126 10.9596zM10.5 0C 7.80219 0 5.37756 13 10.5 13C 15.6224 13 13.1978 0 10.5 0z" stroke="none" fill="#000000" fill-rule="nonzero" />
	<g transform="matrix(1 0 0 1 50.45804 33.55899)">
	</g>
    <path transform="matrix(1 0 0 1 50.45804 33.55899)"  d="M2.04802 3.28262L0.771637 2.64442C 0.298721 2.40797 0 1.92462 0 1.3959C 0 0.624969 0.624954 0 1.39589 0L1.39589 0L4.04179 0C 4.57053 0 5.05386 0.298721 5.29031 0.771637C 5.63509 1.46118 5.35559 2.29965 4.66605 2.64442L4.66605 2.64442L3.38966 3.28262C 2.96738 3.49377 2.47031 3.49377 2.04802 3.28262z" stroke="none" fill="#000000" fill-rule="nonzero" />
	<g transform="matrix(1 0 0 1 44.67688 38.5)">
	</g>
    <path transform="matrix(1 0 0 1 44.67688 38.5)"  d="M1.13034 0.0467072C 1.93317 -0.157639 2.74965 0.327515 2.95401 1.13034C 3.6525 3.87444 4.5123 5.00037 5.31854 5.00037C 6.2114 5.00037 6.72624 4.461 7.02696 2.88574C 7.18231 2.07201 7.96791 1.53828 8.78165 1.69363C 9.59537 1.84898 10.1291 2.63458 9.97375 3.4483C 9.42599 6.3175 7.81964 8.00037 5.31854 8.00037C 2.73085 8.00037 1.04518 5.79295 0.0467072 1.87038C -0.157639 1.06755 0.327515 0.251068 1.13034 0.0467072z" stroke="none" fill="#000000" fill-rule="nonzero" />
	<g transform="matrix(1 0 0 1 51.67624 38.5)">
	</g>
    <path transform="matrix(1 0 0 1 51.67624 38.5)"  d="M8.8703 0.0467072C 8.06747 -0.157639 7.25099 0.327515 7.04663 1.13034C 6.34814 3.87444 5.48834 5.00037 4.6821 5.00037C 3.78925 5.00037 3.2744 4.461 2.97368 2.88574C 2.81833 2.07201 2.03273 1.53828 1.21899 1.69363C 0.405273 1.84898 -0.128464 2.63458 0.026886 3.4483C 0.574646 6.3175 2.181 8.00037 4.6821 8.00037C 7.26979 8.00037 8.95546 5.79295 9.95393 1.87038C 10.1583 1.06755 9.67313 0.251068 8.8703 0.0467072z" stroke="none" fill="#000000" fill-rule="nonzero" />
	<g transform="matrix(1 0 0 1 27.17688 19.5)">
	</g>
    <path transform="matrix(1 0 0 1 27.17688 19.5)"  d="M0 9C 0 4.02944 4.02944 0 9 0C 13.9706 0 18 4.02944 18 9C 18 13.9706 13.9706 18 9 18C 4.02944 18 0 13.9706 0 9z" stroke="none" fill="#000000" fill-rule="nonzero" />
	<g transform="matrix(1 0 0 1 27.17688 19.5)">
	</g>
    <path transform="matrix(1 0 0 1 27.17688 19.5)"  d="M0 9C 0 4.02944 4.02944 0 9 0C 13.9706 0 18 4.02944 18 9C 18 13.9706 13.9706 18 9 18C 4.02944 18 0 13.9706 0 9z" stroke="none" fill="none" />
	<g transform="matrix(1 0 0 1 35.17688 21.5)">
	</g>
    <path transform="matrix(1 0 0 1 35.17688 21.5)"  d="M0 3.75C 0 1.67893 1.67893 0 3.75 0C 5.82107 0 7.5 1.67893 7.5 3.75C 7.5 5.82107 5.82107 7.5 3.75 7.5C 1.67893 7.5 0 5.82107 0 3.75z" stroke="none" fill="#FFFFFF" fill-rule="nonzero" />
	<g transform="matrix(1 0 0 1 33.17688 28.16699)">
	</g>
    <path transform="matrix(1 0 0 1 33.17688 28.16699)"  d="M0 1C 0 0.447715 0.447715 0 1 0C 1.55228 0 2 0.447715 2 1C 2 1.55228 1.55228 2 1 2C 0.447715 2 0 1.55228 0 1z" stroke="none" fill="#FFFFFF" fill-rule="nonzero" />
	<g transform="matrix(1 0 0 1 61.17688 19.5)">
	</g>
    <path transform="matrix(1 0 0 1 61.17688 19.5)"  d="M0 9C 0 4.02944 4.02944 0 9 0C 13.9706 0 18 4.02944 18 9C 18 13.9706 13.9706 18 9 18C 4.02944 18 0 13.9706 0 9z" stroke="none" fill="#000000" fill-rule="nonzero" />
	<g transform="matrix(1 0 0 1 61.17688 19.5)">
	</g>
    <path transform="matrix(1 0 0 1 61.17688 19.5)"  d="M0 9C 0 4.02944 4.02944 0 9 0C 13.9706 0 18 4.02944 18 9C 18 13.9706 13.9706 18 9 18C 4.02944 18 0 13.9706 0 9z" stroke="none" fill="none" />
	<g transform="matrix(1 0 0 1 69.17688 21.5)">
	</g>
    <path transform="matrix(1 0 0 1 69.17688 21.5)"  d="M0 3.75C 0 1.67893 1.67893 0 3.75 0C 5.82107 0 7.5 1.67893 7.5 3.75C 7.5 5.82107 5.82107 7.5 3.75 7.5C 1.67893 7.5 0 5.82107 0 3.75z" stroke="none" fill="#FFFFFF" fill-rule="nonzero" />
	<g transform="matrix(1 0 0 1 67.17688 28.16699)">
	</g>
    <path transform="matrix(1 0 0 1 67.17688 28.16699)"  d="M0 1C 0 0.447715 0.447715 0 1 0C 1.55228 0 2 0.447715 2 1C 2 1.55228 1.55228 2 1 2C 0.447715 2 0 1.55228 0 1z" stroke="none" fill="#FFFFFF" fill-rule="nonzero" />
	<g transform="matrix(1 0 0 1 44.67688 60.5)">
	</g>
    <path transform="matrix(1 0 0 1 44.67688 60.5)"  d="M0 7C 0 3.13401 3.13401 0 7 0C 10.866 0 14 3.13401 14 7C 14 10.866 10.866 14 7 14C 3.13401 14 0 10.866 0 7z" stroke="none" fill="#FFFFFF" fill-rule="nonzero" />
	<g transform="matrix(1 0 0 1 42.67688 58.5)">
	</g>
    <path transform="matrix(1 0 0 1 42.67688 58.5)"  d="M9 0C 4.02943 0 0 4.02943 0 9C 0 13.9706 4.02943 18 9 18C 13.9706 18 18 13.9706 18 9C 18 4.02943 13.9706 0 9 0zM9 4C 11.7614 4 14 6.23857 14 9C 14 11.7614 11.7614 14 9 14C 6.23857 14 4 11.7614 4 9C 4 6.23857 6.23857 4 9 4z" stroke="none" fill="#000000" fill-rule="nonzero" />
	<g transform="matrix(1 0 0 1 67.67719 38.44536)">
	</g>
    <path transform="matrix(1 0 0 1 67.67719 38.44536)"  d="M0 23.5552C 6.00002 22.5552 9.29454 18.2224 10.0207 14.1585C 11.1574 7.79681 9.94302 -1.80447 19.1165 0.294144C 29 2.55521 25 25.5552 11 35.5552" stroke="none" fill="#FF7600" fill-rule="nonzero" />
	<g transform="matrix(1 0 0 1 65.67953 36.4483)">
	</g>
    <path transform="matrix(1 0 0 1 65.67953 36.4483)"  d="M21.5628 0.340836C 17.4065 -0.609985 14.3811 0.443787 12.6199 3.31142C 11.9981 4.32393 11.582 5.37822 11.2656 6.75108L11.2656 6.75108L11.1441 7.31789L11.0318 7.92259C 10.9957 8.13094 10.9609 8.34624 10.9271 8.56917L10.9271 8.56917L10.8286 9.26152C 10.8125 9.38095 10.7967 9.50246 10.7811 9.62611L10.7811 9.62611L10.6889 10.3945L10.599 11.2186L10.37 13.4626L10.257 14.4368L10.173 15.0569L10.0839 15.6212C 10.0735 15.6821 10.063 15.7427 10.0522 15.803C 9.36948 19.6238 6.27856 22.8109 1.67151 23.5788C 0.58197 23.7603 -0.154068 24.7908 0.0275269 25.8803C 0.209122 26.9699 1.23959 27.7059 2.32912 27.5243C 8.63959 26.4726 13.0153 21.9607 13.9898 16.5066L13.9898 16.5066L14.0664 16.0561L14.1372 15.5936L14.2043 15.1046L14.27 14.5748L14.3363 13.9897L14.613 11.3015L14.7325 10.2751L14.8146 9.65408C 14.8285 9.5546 14.8425 9.45706 14.8567 9.36143L14.8567 9.36143L14.9436 8.80998L15.0348 8.30116C 15.2846 6.99846 15.5902 6.11835 16.0284 5.40477C 16.8347 4.0919 18.0986 3.65167 20.6707 4.24011C 23.7755 4.95038 25.8867 8.61824 25.5225 13.385C 24.9376 21.037 19.2604 30.6223 11.8378 35.9241C 10.939 36.5661 10.7308 37.8152 11.3729 38.714C 12.0149 39.6128 13.264 39.821 14.1628 39.179C 22.5251 33.2059 28.8332 22.5556 29.5108 13.6898C 30.0137 7.10931 26.8084 1.54089 21.5628 0.340836z" stroke="none" fill="#000000" fill-rule="nonzero" />
	<g transform="matrix(1 0 0 1 82.67688 46)">
	</g>
    <path transform="matrix(1 0 0 1 82.67688 46)"  d="M0 3C 0 1.34315 1.11929 0 2.5 0C 3.88071 0 5 1.34315 5 3C 5 4.65685 3.88071 6 2.5 6C 1.11929 6 0 4.65685 0 3z" stroke="none" fill="#000000" fill-rule="nonzero" />
	<g transform="matrix(1 0 0 1 81.67688 43)">
	</g>
    <path transform="matrix(1 0 0 1 81.67688 43)"  d="M0 1.5C 0 0.671573 0.447715 0 1 0C 1.55228 0 2 0.671573 2 1.5C 2 2.32843 1.55228 3 1 3C 0.447715 3 0 2.32843 0 1.5z" stroke="none" fill="#000000" fill-rule="nonzero" />
	<g transform="matrix(1 0 0 1 84.67688 42)">
	</g>
    <path transform="matrix(1 0 0 1 84.67688 42)"  d="M0 1.5C 0 0.671573 0.447715 0 1 0C 1.55228 0 2 0.671573 2 1.5C 2 2.32843 1.55228 3 1 3C 0.447715 3 0 2.32843 0 1.5z" stroke="none" fill="#000000" fill-rule="nonzero" />
	<g transform="matrix(1 0 0 1 87.67688 44)">
	</g>
    <path transform="matrix(1 0 0 1 87.67688 44)"  d="M0 1.5C 0 0.671573 0.447715 0 1 0C 1.55228 0 2 0.671573 2 1.5C 2 2.32843 1.55228 3 1 3C 0.447715 3 0 2.32843 0 1.5z" stroke="none" fill="#000000" fill-rule="nonzero" />
	<g transform="matrix(1 0 0 1 25.67654 62.00018)">
	</g>
    <path transform="matrix(1 0 0 1 25.67654 62.00018)"  d="M0 11C 2 6 3.73145 -1.52588E-05 12 0C 20 0 21.683 8.88918 21.1811 12.7256C 20.6792 16.5621 19.8975 21.202 13.4803 20.8402C 9.20218 20.599 7.6463 16.8594 8.81265 9.62149" stroke="none" fill="#FF7600" fill-rule="nonzero" />
	<g transform="matrix(1 0 0 1 23.67632 60.00035)">
	</g>
    <path transform="matrix(1 0 0 1 23.67632 60.00035)"  d="M14.0005 0C 18.4306 0 21.6828 2.27876 23.5663 6.02599C 24.9669 8.81258 25.5114 12.3354 25.1647 14.9851L25.1647 14.9851L25.0581 15.762C 24.6797 18.3773 24.2323 19.9349 23.2148 21.4648C 21.6216 23.8604 19.0044 25.042 15.3683 24.837C 9.57394 24.5103 7.50986 19.5493 8.83865 11.3033C 9.01437 10.2128 10.0409 9.47124 11.1314 9.64697C 12.2219 9.82269 12.9634 10.8492 12.7877 11.9397L12.7877 11.9397L12.7341 12.282L12.6393 12.9439L12.5614 13.5758C 12.5497 13.6787 12.5388 13.7803 12.5286 13.8807L12.5286 13.8807L12.4755 14.4685C 12.1319 18.8638 13.2407 20.7107 15.5934 20.8434C 18.6188 21.0139 19.9128 20.1575 20.6516 17.4386L20.6516 17.4386L20.7585 17.0167C 20.7756 16.944 20.7925 16.8701 20.809 16.7951L20.809 16.7951L20.905 16.3301C 20.9205 16.2502 20.9357 16.169 20.9506 16.0866L20.9506 16.0866L21.0378 15.5771C 21.0519 15.4897 21.0658 15.401 21.0795 15.311L21.0795 15.311L21.1597 14.7556C 21.1728 14.6605 21.1857 14.564 21.1985 14.4662C 21.8526 9.46638 19.1051 4 14.0005 4C 9.28389 4 7.14481 5.86034 5.08775 10.6638L5.08775 10.6638L4.47243 12.1789L3.85748 13.7428C 3.44725 14.7684 2.28331 15.2672 1.25774 14.857C 0.232193 14.4467 -0.266647 13.2828 0.14357 12.2572L0.14357 12.2572L1.1257 9.7724L1.411 9.08987C 4.0498 2.94948 7.37459 1.52588E-05 14.0005 0z" stroke="none" fill="#000000" fill-rule="nonzero" />
	<g transform="matrix(1 0 0 1 9.17688 32.496)">
	</g>
    <path transform="matrix(1 0 0 1 9.17688 32.496)"  d="M5.05792 0.463013C 7.36534 -0.0518951 9.64294 -0.094223 12.2283 0.125977L12.2283 0.125977L13.4339 0.23381L13.5002 0.236923C 14.3286 0.236923 15.0002 0.908493 15.0002 1.73692C 15.0002 2.56535 14.3286 3.23692 13.5002 3.23692L13.5002 3.23692L13.3279 3.23256L13.117 3.2187L11.9737 3.11516C 9.66609 2.91861 7.66122 2.95587 5.7113 3.39099C 4.42216 3.67868 3.28418 4.12924 2.32166 4.75925C 1.62851 5.21295 0.698822 5.01883 0.245117 4.32568C -0.208572 3.63254 -0.0144653 2.70285 0.67868 2.24915C 1.96454 1.4075 3.43567 0.825027 5.05792 0.463013z" stroke="none" fill="#000000" fill-rule="nonzero" />
	<g transform="matrix(1 0 0 1 9.640869 36.20567)">
	</g>
    <path transform="matrix(1 0 0 1 9.640869 36.20567)"  d="M4.14941 2.45488C 6.24496 1.36031 8.43401 0.729935 10.9882 0.273483L10.9882 0.273483L12.1806 0.0656281L12.2455 0.0514832C 13.0457 -0.162933 13.8682 0.311935 14.0826 1.11214C 14.297 1.91234 13.8221 2.73483 13.0219 2.94925L13.0219 2.94925L12.8544 2.98962L12.6471 3.03082L11.516 3.22672C 9.23613 3.63411 7.3092 4.18901 5.53836 5.11398C 4.3676 5.72549 3.38501 6.45526 2.61835 7.31291C 2.06625 7.93054 1.11798 7.98367 0.500351 7.43156C -0.117294 6.87947 -0.170425 5.9312 0.381683 5.31357C 1.4059 4.1678 2.67615 3.22441 4.14941 2.45488z" stroke="none" fill="#000000" fill-rule="nonzero" />
	<g transform="matrix(1 0 0 1 12.48166 39.8351)">
	</g>
    <path transform="matrix(1 0 0 1 12.48166 39.8351)"  d="M3.06082 4.61813C 4.80167 3.01849 6.75296 1.84305 9.10202 0.741058L9.10202 0.741058L10.2 0.231674L10.259 0.201202C 10.9764 -0.212997 11.8938 0.0328064 12.308 0.750244C 12.7222 1.46768 12.4764 2.38509 11.759 2.79929L11.759 2.79929L11.6076 2.88164L11.418 2.9751L10.3761 3.45708C 8.27942 4.44067 6.56177 5.47536 5.09067 6.82715C 4.11807 7.72087 3.35783 8.68005 2.83926 9.70692C 2.46584 10.4464 1.56363 10.7431 0.824142 10.3697C 0.084671 9.99628 -0.212067 9.09409 0.161362 8.3546C 0.854126 6.98277 1.83691 5.74277 3.06082 4.61813z" stroke="none" fill="#000000" fill-rule="nonzero" />
	<g transform="matrix(1 0 0 1 83.17654 32.496)">
	</g>
    <path transform="matrix(1 0 0 1 83.17654 32.496)"  d="M9.94223 0.463013C 7.63483 -0.0518951 5.35721 -0.094223 2.77188 0.125977L2.77188 0.125977L1.56631 0.23381L1.5 0.236923C 0.67157 0.236923 0 0.908493 0 1.73692C 0 2.56535 0.67157 3.23692 1.5 3.23692L1.5 3.23692L1.67227 3.23256L1.88318 3.2187L3.02646 3.11516C 5.33408 2.91861 7.33896 2.95587 9.28885 3.39099C 10.578 3.67868 11.716 4.12924 12.6785 4.75925C 13.3716 5.21295 14.3014 5.01883 14.755 4.32568C 15.2087 3.63254 15.0146 2.70285 14.3215 2.24915C 13.0356 1.4075 11.5645 0.825027 9.94223 0.463013z" stroke="none" fill="#000000" fill-rule="nonzero" />
	<g transform="matrix(1 0 0 1 83.57922 36.2057)">
	</g>
    <path transform="matrix(1 0 0 1 83.57922 36.2057)"  d="M9.98468 2.45488C 7.88916 1.36032 5.7001 0.729935 3.14587 0.273499L3.14587 0.273499L1.95348 0.0656281L1.88861 0.0514832C 1.08842 -0.162918 0.2659 0.311935 0.0514832 1.11214C -0.162933 1.91234 0.311966 2.73485 1.11215 2.94925L1.11215 2.94925L1.27969 2.98962L1.487 3.03084L2.61813 3.22672C 4.89796 3.63412 6.82489 4.18901 8.59573 5.114C 9.76648 5.72551 10.7491 6.45528 11.5157 7.31293C 12.0679 7.93056 13.0161 7.98369 13.6338 7.43158C 14.2514 6.87949 14.3045 5.93121 13.7524 5.31358C 12.7282 4.1678 11.4579 3.22443 9.98468 2.45488z" stroke="none" fill="#000000" fill-rule="nonzero" />
</g>
</svg>