<svg width="150" height="26" viewBox="0 0 150 26" fill="none" xmlns="http://www.w3.org/2000/svg">
<mask id="mask0" mask-type="alpha" maskUnits="userSpaceOnUse" x="50" y="5" width="15" height="15">
<path fill-rule="evenodd" clip-rule="evenodd" d="M59.9515 15.4989C60.6192 14.7924 60.953 13.884 60.953 12.7718C60.953 11.6608 60.6245 10.7574 59.969 10.0624C59.3136 9.36868 58.4747 9.02119 57.4533 9.02119C56.4562 9.02119 55.6251 9.37157 54.9615 10.0748C54.2976 10.7772 53.9662 11.6761 53.9662 12.7718C53.9662 13.8997 54.2939 14.8122 54.9497 15.5113C55.6056 16.2096 56.4359 16.5591 57.4414 16.5591C58.447 16.5591 59.2834 16.2063 59.9515 15.4989ZM60.8058 6.87681C61.8685 7.48843 62.698 8.31754 63.2939 9.36662C63.8894 10.414 64.1874 11.5453 64.1874 12.7606C64.1874 13.9831 63.8878 15.1262 63.2878 16.1898C62.6882 17.2541 61.8705 18.0853 60.8352 18.6849C59.7999 19.2842 58.6594 19.5838 57.4125 19.5838C55.5774 19.5838 54.011 18.9231 52.7136 17.6016C51.4158 16.2793 50.7668 14.6739 50.7668 12.7842C50.7668 10.7595 51.5001 9.07195 52.9663 7.72243C54.2523 6.54789 55.7307 5.96021 57.4007 5.96021C58.608 5.96021 59.7436 6.26601 60.8058 6.87681Z" fill="white"/>
</mask>
<g mask="url(#mask0)">
<path fill-rule="evenodd" clip-rule="evenodd" d="M48.7288 21.6473H66.2254V3.89673H48.7288V21.6473Z" fill="#3CAD2B"/>
</g>
<mask id="mask1" mask-type="alpha" maskUnits="userSpaceOnUse" x="79" y="5" width="15" height="15">
<path fill-rule="evenodd" clip-rule="evenodd" d="M83.173 11.1527H90.1361C89.9242 10.4297 89.5064 9.84156 88.8815 9.38924C88.2571 8.93651 87.5327 8.71076 86.7073 8.71076C85.8126 8.71076 85.0268 8.96457 84.3513 9.47343C83.9274 9.7908 83.5341 10.3504 83.173 11.1527ZM86.5488 5.95972C88.564 5.95972 90.203 6.61302 91.4653 7.91921C92.7277 9.22457 93.3595 10.9497 93.3595 13.0932L93.3473 13.7123H83.0315C83.1807 14.6342 83.5789 15.3668 84.2258 15.9095C84.8727 16.4538 85.6977 16.7254 86.702 16.7254C87.9016 16.7254 88.9329 16.3007 89.7958 15.4518L92.5007 16.7377C91.8261 17.7064 91.0186 18.4224 90.0774 18.8875C89.1367 19.3514 88.0194 19.5837 86.7253 19.5837C84.7178 19.5837 83.0825 18.9424 81.8201 17.6605C80.5577 16.3791 79.9268 14.7725 79.9268 12.8435C79.9268 10.8667 80.5557 9.22457 81.8144 7.91921C83.0727 6.61302 84.6514 5.95972 86.5488 5.95972Z" fill="white"/>
</mask>
<g mask="url(#mask1)">
<path fill-rule="evenodd" clip-rule="evenodd" d="M77.8887 21.6472H95.3975V3.89624H77.8887V21.6472Z" fill="#3CAD2B"/>
</g>
<mask id="mask2" mask-type="alpha" maskUnits="userSpaceOnUse" x="108" y="6" width="14" height="14">
<path fill-rule="evenodd" clip-rule="evenodd" d="M118.326 6.29297H121.581L116.135 19.2509H114.053L108.595 6.29297H111.867L115.1 13.9394L118.326 6.29297Z" fill="white"/>
</mask>
<g mask="url(#mask2)">
<path fill-rule="evenodd" clip-rule="evenodd" d="M106.557 21.3144H123.619V4.22949H106.557V21.3144Z" fill="#3CAD2B"/>
</g>
<mask id="mask3" mask-type="alpha" maskUnits="userSpaceOnUse" x="121" y="5" width="15" height="15">
<path fill-rule="evenodd" clip-rule="evenodd" d="M124.828 11.1527H131.791C131.579 10.4297 131.161 9.84156 130.536 9.38924C129.912 8.93651 129.188 8.71076 128.362 8.71076C127.467 8.71076 126.682 8.96457 126.006 9.47343C125.582 9.7908 125.189 10.3504 124.828 11.1527ZM128.204 5.95972C130.219 5.95972 131.858 6.61302 133.12 7.91921C134.382 9.22457 135.014 10.9497 135.014 13.0932L135.002 13.7123H124.686C124.835 14.6342 125.234 15.3664 125.881 15.9099C126.527 16.4538 127.352 16.7254 128.356 16.7254C129.556 16.7254 130.587 16.3007 131.45 15.4518L134.155 16.7377C133.481 17.7064 132.673 18.4224 131.732 18.8875C130.791 19.3514 129.674 19.5837 128.38 19.5837C126.372 19.5837 124.737 18.9424 123.475 17.661C122.212 16.3791 121.582 14.7725 121.582 12.8435C121.582 10.8667 122.21 9.22457 123.469 7.91921C124.727 6.61302 126.306 5.95972 128.204 5.95972Z" fill="white"/>
</mask>
<g mask="url(#mask3)">
<path fill-rule="evenodd" clip-rule="evenodd" d="M119.543 21.6472H137.052V3.89624H119.543V21.6472Z" fill="#3CAD2B"/>
</g>
<mask id="mask4" mask-type="alpha" maskUnits="userSpaceOnUse" x="136" y="5" width="14" height="15">
<path fill-rule="evenodd" clip-rule="evenodd" d="M145.659 15.4988C146.326 14.7923 146.66 13.8839 146.66 12.7717C146.66 11.6607 146.332 10.7573 145.676 10.0624C145.021 9.36861 144.182 9.02111 143.16 9.02111C142.163 9.02111 141.332 9.37149 140.668 10.0751C140.005 10.7771 139.673 11.676 139.673 12.7717C139.673 13.8996 140.001 14.8121 140.657 15.5112C141.313 16.2095 142.143 16.5591 143.149 16.5591C144.154 16.5591 144.99 16.2062 145.659 15.4988ZM149.001 9.36654C149.596 10.414 149.894 11.5452 149.894 12.7606C149.894 13.983 149.595 15.1262 148.995 16.1897C148.395 17.254 147.578 18.0852 146.542 18.6844C145.507 19.2841 144.366 19.5837 143.12 19.5837C141.285 19.5837 139.718 18.923 138.421 17.6015C137.123 16.2792 136.474 14.6738 136.474 12.7841C136.474 10.7594 137.207 9.07188 138.673 7.72235C139.959 6.54781 141.438 5.95972 143.107 5.95972C144.315 5.95972 145.45 6.26594 146.513 6.87673C147.576 7.48835 148.405 8.31746 149.001 9.36654Z" fill="white"/>
</mask>
<g mask="url(#mask4)">
<path fill-rule="evenodd" clip-rule="evenodd" d="M134.435 21.6472H151.932V3.89624H134.435V21.6472Z" fill="#3CAD2B"/>
</g>
<mask id="mask5" mask-type="alpha" maskUnits="userSpaceOnUse" x="65" y="5" width="14" height="15">
<path fill-rule="evenodd" clip-rule="evenodd" d="M72.0664 5.98608C75.5959 5.98608 78.467 8.89396 78.467 12.4679V19.244H75.3382V12.4679C75.3382 10.6405 73.8704 9.15437 72.0664 9.15437C70.2619 9.15437 68.7941 10.6405 68.7941 12.4679V19.244H65.6653V12.4679C65.6653 8.89396 68.5369 5.98608 72.0664 5.98608Z" fill="white"/>
</mask>
<g mask="url(#mask5)">
<path fill-rule="evenodd" clip-rule="evenodd" d="M63.6272 21.3075H80.5051V3.92261H63.6272V21.3075Z" fill="#3CAD2B"/>
</g>
<mask id="mask6" mask-type="alpha" maskUnits="userSpaceOnUse" x="26" y="5" width="24" height="15">
<path fill-rule="evenodd" clip-rule="evenodd" d="M42.9061 5.98608C46.4355 5.98608 49.3067 8.89396 49.3067 12.4679V19.244H46.1779V12.4679C46.1779 10.6405 44.7101 9.15437 42.9061 9.15437C41.1016 9.15437 39.6338 10.6405 39.6338 12.4679V19.244H39.5739H36.505H36.4451V12.4679C36.4451 10.6405 34.9777 9.15437 33.1736 9.15437C31.3691 9.15437 29.9009 10.6405 29.9009 12.4679V19.244H26.7721V12.4679C26.7721 8.89396 29.6437 5.98608 33.1736 5.98608C35.1195 5.98608 36.8645 6.87173 38.0396 8.26418C39.2144 6.87173 40.9597 5.98608 42.9061 5.98608Z" fill="white"/>
</mask>
<g mask="url(#mask6)">
<path fill-rule="evenodd" clip-rule="evenodd" d="M24.734 21.3075H51.3447V3.92261H24.734V21.3075Z" fill="#3CAD2B"/>
</g>
<mask id="mask7" mask-type="alpha" maskUnits="userSpaceOnUse" x="94" y="6" width="14" height="20">
<path fill-rule="evenodd" clip-rule="evenodd" d="M104.465 8.82886V6.30273H107.593V8.82886V13.0788V19.5607H107.591C107.552 23.1 104.697 25.9678 101.192 25.9678V22.7995C102.997 22.7995 104.464 21.3138 104.465 19.4868V18.6465C103.506 19.2264 102.387 19.5607 101.192 19.5607C97.6629 19.5607 94.7917 16.6528 94.7917 13.0788V6.30273H97.9201V13.0788C97.9201 14.9058 99.3879 16.392 101.192 16.392C102.997 16.392 104.465 14.9058 104.465 13.0788V8.82886Z" fill="white"/>
</mask>
<g mask="url(#mask7)">
<path fill-rule="evenodd" clip-rule="evenodd" d="M92.7537 28.0313H109.631V4.23926H92.7537V28.0313Z" fill="#3CAD2B"/>
</g>
<mask id="mask8" mask-type="alpha" maskUnits="userSpaceOnUse" x="7" y="5" width="16" height="15">
<path fill-rule="evenodd" clip-rule="evenodd" d="M12.4284 5.375H22.6292L17.5137 19.0787H7.3125L12.4284 5.375Z" fill="white"/>
</mask>
<g mask="url(#mask8)">
<path fill-rule="evenodd" clip-rule="evenodd" d="M5.27441 21.1422H24.6672V3.31152H5.27441V21.1422Z" fill="#915FFF"/>
</g>
<mask id="mask9" mask-type="alpha" maskUnits="userSpaceOnUse" x="0" y="0" width="18" height="20">
<path fill-rule="evenodd" clip-rule="evenodd" d="M10.5122 0.32959L17.4909 19.0785H7.32755L0.348877 0.32959H10.5122Z" fill="white"/>
</mask>
<g mask="url(#mask9)">
<path fill-rule="evenodd" clip-rule="evenodd" d="M-1.68921 21.142H19.5289V-1.73389H-1.68921V21.142Z" fill="#3CAD2B"/>
</g>
<mask id="mask10" mask-type="alpha" maskUnits="userSpaceOnUse" x="7" y="5" width="11" height="15">
<path fill-rule="evenodd" clip-rule="evenodd" d="M7.32019 19.058L12.4092 5.42578L17.4908 19.0783H7.32793L7.32019 19.058Z" fill="white"/>
</mask>
<g mask="url(#mask10)">
<path fill-rule="evenodd" clip-rule="evenodd" d="M5.2821 21.1418H19.5288V3.3623H5.2821V21.1418Z" fill="#2C608A"/>
</g>
</svg>
