<svg style="width:128px;height:48px" width="449" height="124" viewBox="0 0 449 124" fill="none" xmlns="http://www.w3.org/2000/svg"><path d="M203.499 91.2621C200.3 91.2621 198.702 89.6341 198.702 86.3756V33.6278H179.147C176.381 33.6278 174.997 32.2775 174.997 29.5721C174.997 26.929 176.381 25.6074 179.147 25.6074H227.76C230.589 25.6074 232.004 26.9314 232.004 29.5721C232.004 32.2775 230.589 33.6302 227.76 33.6302H208.205V86.3756C208.205 89.6341 206.637 91.2621 203.499 91.2621Z" fill="#0D40B6"></path><path d="M243.22 35.5654C241.376 35.5654 239.946 35.1033 238.93 34.1816C237.915 33.2599 237.41 31.9694 237.41 30.3079C237.41 26.8029 239.347 25.0527 243.22 25.0527C247.095 25.0527 249.03 26.8053 249.03 30.3079C249.032 33.8129 247.095 35.5654 243.22 35.5654Z" fill="#0D40B6"></path><path d="M243.22 91.1693C240.145 91.1693 238.607 89.4791 238.607 86.0985V50.1361C238.607 46.8154 240.145 45.1562 243.22 45.1562C246.357 45.1562 247.924 46.8154 247.924 50.1361V86.0985C247.924 89.4791 246.357 91.1693 243.22 91.1693Z" fill="#0D40B6"></path><path d="M263.367 91.2627C260.291 91.2627 258.754 89.6945 258.754 86.5606V49.674C258.754 46.5377 260.26 44.9719 263.273 44.9719C266.286 44.9719 267.793 46.5401 267.793 49.674V53.0857C269.33 50.3803 271.435 48.3213 274.11 46.9064C276.786 45.4938 279.784 44.7852 283.104 44.7852C293.742 44.7852 299.061 50.8112 299.061 62.8586V86.5582C299.061 89.6946 297.524 91.2603 294.449 91.2603C291.311 91.2603 289.745 89.6922 289.745 86.5582V63.414C289.745 59.5403 288.99 56.7152 287.484 54.9292C285.975 53.1455 283.623 52.2549 280.428 52.2549C276.675 52.2549 273.679 53.44 271.435 55.8054C269.189 58.1732 268.068 61.2928 268.068 65.1665V86.5606C268.07 89.6945 266.504 91.2627 263.367 91.2627Z" fill="#0D40B6"></path><path d="M330.548 91.2625C327.966 91.2625 326.119 89.972 325.013 87.3887L300.199 31.2316C299.399 29.3259 299.444 27.8056 300.337 26.6684C301.228 25.5312 302.505 24.9614 304.165 24.9614C305.578 24.9614 306.655 25.2702 307.393 25.8831C308.131 26.4984 308.746 27.4202 309.237 28.6484L330.73 78.5352L352.131 28.555C352.684 27.389 353.345 26.496 354.114 25.8807C354.883 25.2654 355.944 24.959 357.297 24.959C358.894 24.959 360.077 25.5432 360.849 26.7115C361.617 27.8798 361.601 29.3858 360.803 31.2293L336.082 87.3887C335.529 88.7414 334.82 89.7254 333.96 90.3407C333.098 90.9536 331.961 91.2625 330.548 91.2625Z" fill="#0D40B6"></path><path d="M377.601 91.4462C374.464 91.4462 371.667 90.8309 369.207 89.6027C366.747 88.3745 364.793 86.7154 363.349 84.6229C361.902 82.5328 361.181 80.1674 361.181 77.5218C361.181 74.2011 362.027 71.5891 363.718 69.6834C365.409 67.7777 368.206 66.3962 372.112 65.5343C376.016 64.6748 381.29 64.2439 387.933 64.2439H391.071V61.8474C391.071 58.3423 390.333 55.8237 388.858 54.2866C387.382 52.7496 384.951 51.9811 381.57 51.9811C379.601 51.9811 377.556 52.2277 375.436 52.7185C373.314 53.2117 371.116 54.0424 368.84 55.2084C367.55 55.8237 366.489 55.9147 365.658 55.4837C364.827 55.0552 364.259 54.3776 363.95 53.4559C363.641 52.5341 363.675 51.5813 364.043 50.5973C364.412 49.6157 365.181 48.8783 366.35 48.3851C369.056 47.1569 371.731 46.2495 374.375 45.6653C377.019 45.0811 379.51 44.7891 381.848 44.7891C387.995 44.7891 392.548 46.2495 395.499 49.168C398.452 52.0888 399.927 56.6545 399.927 62.8625V86.5621C399.927 89.6985 398.481 91.2642 395.592 91.2642C392.642 91.2642 391.164 89.6961 391.164 86.5621V83.1505C390.058 85.7314 388.336 87.7616 385.998 89.2364C383.658 90.7088 380.858 91.4462 377.601 91.4462ZM379.445 84.8072C382.765 84.8072 385.533 83.6413 387.746 81.3022C389.959 78.9679 391.068 76.0159 391.068 72.4486V69.9587H388.024C383.534 69.9587 380.013 70.1742 377.462 70.6051C374.909 71.0361 373.094 71.7567 372.021 72.7718C370.943 73.787 370.407 75.1852 370.407 76.9664C370.407 79.3031 371.204 81.1945 372.804 82.6381C374.402 84.0842 376.617 84.8072 379.445 84.8072Z" fill="#0D40B6"></path><path d="M420.024 107.861C418.302 107.861 417.119 107.231 416.472 105.969C415.825 104.71 415.873 103.249 416.611 101.59L422.052 89.4185L405.632 51.3324C404.895 49.6733 404.878 48.1985 405.587 46.9056C406.293 45.6152 407.692 44.9688 409.783 44.9688C410.889 44.9688 411.797 45.2465 412.504 45.7995C413.21 46.3526 413.84 47.3078 414.396 48.6581L427.034 79.8251L439.856 48.6581C440.41 47.2456 441.056 46.276 441.794 45.754C442.532 45.2321 443.547 44.9711 444.838 44.9711C446.498 44.9711 447.635 45.6176 448.251 46.908C448.864 48.1984 448.835 49.6445 448.16 51.2414L425.099 104.265C424.483 105.677 423.791 106.63 423.022 107.123C422.251 107.614 421.252 107.861 420.024 107.861Z" fill="#0D40B6"></path><path d="M69.4541 116.042C39.6942 116.042 15.5673 91.9239 15.5673 62.1742C15.5673 44.3881 24.194 28.6155 37.4884 18.8066C15.7469 25.7425 0 46.0975 0 70.1323C0 99.882 24.1269 124.001 53.8868 124.001C65.8544 124.001 76.9096 120.098 85.8524 113.5C80.6817 115.149 75.1732 116.042 69.4541 116.042Z" fill="#D2E4FF"></path><path d="M85.0214 107.737C55.2616 107.737 31.1347 83.618 31.1347 53.8684C31.1347 36.4462 39.4117 20.9585 52.2439 11.1113C30.9239 18.2914 15.5674 38.4381 15.5674 62.1737C15.5674 91.9233 39.6943 116.042 69.4541 116.042C81.7858 116.042 93.1499 111.898 102.232 104.931C96.8262 106.75 91.04 107.737 85.0214 107.737Z" fill="#6995E9"></path><path d="M85.0215 0C55.2617 0 31.1348 24.1186 31.1348 53.8683C31.1348 83.6179 55.2617 107.737 85.0215 107.737C114.781 107.737 138.908 83.6179 138.908 53.8683C138.908 24.1186 114.781 0 85.0215 0ZM85.0215 83.7305C85.0215 67.2396 71.648 53.8683 55.1491 53.8683C71.648 53.8683 85.0215 40.4994 85.0215 24.0061C85.0215 40.4994 98.3974 53.8683 114.894 53.8683C98.3974 53.8683 85.0215 67.2396 85.0215 83.7305Z" fill="#0D40B6"></path></svg>